<svg xmlns="http://www.w3.org/2000/svg" xmlns:xlink="http://www.w3.org/1999/xlink" viewBox="0 0 2275.8 1669.9"><defs><style>.cls-1,.cls-2,.cls-29,.cls-30,.cls-50,.cls-7{fill:none;}.cls-1,.cls-13,.cls-7{stroke:#ccc;}.cls-1,.cls-13,.cls-29,.cls-30,.cls-36,.cls-38,.cls-39,.cls-7{stroke-miterlimit:10;}.cls-1{stroke-width:20px;}.cls-3{clip-path:url(#clip-path);}.cls-4{fill:#f2f2f2;}.cls-13,.cls-19,.cls-36,.cls-38,.cls-39,.cls-5{fill:#fff;}.cls-6{fill:#ccc;}.cls-8{fill:#293a4a;}.cls-9{fill:#e6e6e6;}.cls-10{fill:#83b655;}.cls-11{fill:#ed1c24;}.cls-12{fill:#fbb03b;}.cls-14{fill:#4f5b94;}.cls-15{fill:#e0e0e0;}.cls-16{fill:#666;}.cls-17{fill:#bcbcbc;}.cls-18,.cls-19,.cls-20,.cls-44,.cls-45,.cls-46,.cls-47{font-size:16px;}.cls-18,.cls-20,.cls-44{fill:#4d4d4d;}.cls-18,.cls-19,.cls-45,.cls-46,.cls-47,.cls-48{font-family:OpenSans-Regular, Open Sans;}.cls-20{font-family:Palatino-BoldItalic, Palatino;font-style:italic;}.cls-20,.cls-44{font-weight:700;}.cls-21{fill:#6a9638;}.cls-22{fill:#84b556;}.cls-23{fill:#ff6a1a;}.cls-24{fill:#25323c;}.cls-25{fill:#eda72b;}.cls-26{fill:#336792;}.cls-27{fill:#d34231;}.cls-28{fill:#32415b;}.cls-29,.cls-30{stroke:#15587c;}.cls-30,.cls-38{stroke-width:1.5px;}.cls-31{fill:#15587c;}.cls-32{fill:#189bd8;}.cls-33{clip-path:url(#clip-path-2);}.cls-34{clip-path:url(#clip-path-3);}.cls-35{fill:#ff6c2c;}.cls-36,.cls-38,.cls-39{stroke:#fff;}.cls-36{stroke-width:2px;}.cls-37{fill:#8892bf;}.cls-39{stroke-width:0.5px;}.cls-40{clip-path:url(#clip-path-4);}.cls-41{fill:#fa741d;}.cls-42{fill:#39ff2a;}.cls-43{fill:#fff9f9;}.cls-44{font-family:OpenSans-Bold, Open Sans;}.cls-45{fill:#b3b3b3;}.cls-46{fill:#179bd7;}.cls-48{font-size:32.44px;}.cls-48,.cls-49{fill:#999;}.cls-50{stroke:#999;stroke-linecap:round;stroke-linejoin:round;stroke-width:5px;}.cls-51{fill:gray;}</style><clipPath id="clip-path"><rect class="cls-1" x="10" y="10" width="2255.8" height="1639.44" rx="12"/></clipPath><clipPath id="clip-path-2"><path class="cls-2" d="M733.09,755.45v57.19h56.47V755.45Zm39,50.84a11.6,11.6,0,1,1,11.69-11.59,11.6,11.6,0,0,1-11.69,11.59Z"/></clipPath><clipPath id="clip-path-3"><path class="cls-2" d="M1084.56,796.28a11.74,11.74,0,0,1,22.51-4.68,24.51,24.51,0,1,0-15.45,15.45A11.73,11.73,0,0,1,1084.56,796.28Z"/></clipPath><clipPath id="clip-path-4"><circle class="cls-2" cx="775" cy="1057.97" r="11.95"/></clipPath></defs><title>Asset 3@1x</title><g id="Layer_2" data-name="Layer 2"><g id="Layer_1-2" data-name="Layer 1"><g class="cls-3"><rect class="cls-4" x="9.8" y="107.63" width="2256" height="1542.28"/><rect class="cls-5" x="1650.16" y="907.91" width="581.61" height="694.5" rx="2.5"/><path class="cls-6" d="M2229.27,908.41a2,2,0,0,1,2,2v689.5a2,2,0,0,1-2,2H1652.66a2,2,0,0,1-2-2V910.41a2,2,0,0,1,2-2h576.61m0-1H1652.66a3,3,0,0,0-3,3v689.5a3,3,0,0,0,3,3h576.61a3,3,0,0,0,3-3V910.41a3,3,0,0,0-3-3Z"/><line class="cls-7" x1="1650.3" y1="1009.74" x2="2232.3" y2="1009.74"/><line class="cls-7" x1="1650.8" y1="1090.41" x2="2232.8" y2="1090.41"/><line class="cls-7" x1="1650.3" y1="1176.41" x2="2232.3" y2="1176.41"/><line class="cls-7" x1="1650.3" y1="1363.08" x2="2232.3" y2="1363.08"/><line class="cls-7" x1="1650.3" y1="1280.74" x2="2232.3" y2="1280.74"/><path class="cls-8" d="M1652.66,874.07h576.61a3,3,0,0,1,3,3v49.38a0,0,0,0,1,0,0H1649.66a0,0,0,0,1,0,0V877.07a3,3,0,0,1,3-3Z"/><rect class="cls-8" x="9.8" y="121.91" width="2256" height="96"/><rect class="cls-9" x="10.8" y="218.92" width="73" height="1426.04"/><rect class="cls-9" x="10" y="10" width="2255.8" height="111.61"/><path class="cls-10" d="M157.16,84.71a12.08,12.08,0,1,1,12.08-12.08A12.09,12.09,0,0,1,157.16,84.71Z"/><path class="cls-11" d="M71.11,84.71A12.08,12.08,0,1,1,83.19,72.63,12.1,12.1,0,0,1,71.11,84.71Z"/><path class="cls-12" d="M114.13,84.71a12.08,12.08,0,1,1,12.08-12.08A12.09,12.09,0,0,1,114.13,84.71Z"/><path class="cls-5" d="M57.1,164h7.45l-1.16,4.41a2.75,2.75,0,0,1-1,1.49,2.68,2.68,0,0,1-1.68.56H57.26a3.35,3.35,0,0,0-2.09.69,3.64,3.64,0,0,0-1.27,1.88,3.56,3.56,0,0,0,0,1.68,3.74,3.74,0,0,0,.64,1.4,3.33,3.33,0,0,0,1.19,1,3.49,3.49,0,0,0,1.58.36h2.11a1.17,1.17,0,0,1,1,.48,1.13,1.13,0,0,1,.22,1.07l-1.32,4.88H56.93a9.32,9.32,0,0,1-4.36-1,9.9,9.9,0,0,1-3.32-2.75,9.79,9.79,0,0,1-1.79-3.91,9.63,9.63,0,0,1,.11-4.49l.14-.5A9.67,9.67,0,0,1,51.18,166a10.1,10.1,0,0,1,2.75-1.47A9.62,9.62,0,0,1,57.1,164Z"/><path class="cls-5" d="M60.86,183.91l6.49-24.32a2.75,2.75,0,0,1,1-1.49,2.68,2.68,0,0,1,1.68-.56H76.9a9.33,9.33,0,0,1,4.37,1,9.86,9.86,0,0,1,3.31,2.75,10,10,0,0,1,1.82,3.91,9.18,9.18,0,0,1-.14,4.5l-.13.49a9.53,9.53,0,0,1-1.32,2.92,9.63,9.63,0,0,1-8,4.3h-6L72,173a2.83,2.83,0,0,1,1-1.45,2.72,2.72,0,0,1,1.68-.56h1.92a3.46,3.46,0,0,0,3.36-2.6,3.3,3.3,0,0,0,0-1.62,3.67,3.67,0,0,0-.65-1.4,3.59,3.59,0,0,0-1.18-1,3.41,3.41,0,0,0-1.58-.38h-3.7l-4.81,17.9a2.72,2.72,0,0,1-1,1.45,2.63,2.63,0,0,1-1.64.56Z"/><path class="cls-5" d="M102,170.92l.1-.36a.48.48,0,0,0-.08-.44.51.51,0,0,0-.41-.18H90.85a2.63,2.63,0,0,1-1.26-.3,2.89,2.89,0,0,1-.92-.77,2.66,2.66,0,0,1-.49-1.11,2.78,2.78,0,0,1,0-1.28l.66-2.51h14.5a5.27,5.27,0,0,1,2.47.59,5.76,5.76,0,0,1,1.86,1.55,5.51,5.51,0,0,1,1,4.75l-2.6,9.69a4.33,4.33,0,0,1-1.6,2.4,4.37,4.37,0,0,1-2.75.93l-10.71,0a5.7,5.7,0,0,1-4.55-2.22,6.1,6.1,0,0,1-1-2.31,5.41,5.41,0,0,1,.06-2.65l.14-.5a5.27,5.27,0,0,1,.77-1.71,5.64,5.64,0,0,1,1.27-1.35,5.82,5.82,0,0,1,1.61-.87,5.62,5.62,0,0,1,1.88-.32h9l-.66,2.48a2.87,2.87,0,0,1-1,1.45,2.63,2.63,0,0,1-1.65.56h-4a.69.69,0,0,0-.72.56.67.67,0,0,0,.13.64.72.72,0,0,0,.59.28h6.49a1,1,0,0,0,.63-.2.81.81,0,0,0,.33-.53l.07-.26Z"/><path class="cls-5" d="M121.13,164a9.28,9.28,0,0,1,4.4,1,9.72,9.72,0,0,1,5.11,6.67,9.34,9.34,0,0,1-.15,4.51l-1.65,6.2a1.78,1.78,0,0,1-.7,1,2,2,0,0,1-1.21.4h-3.56a1.19,1.19,0,0,1-1-.48,1.16,1.16,0,0,1-.19-1.07l2-7.48a3.19,3.19,0,0,0,0-1.62,3.65,3.65,0,0,0-.64-1.4,3.48,3.48,0,0,0-1.19-1,3.27,3.27,0,0,0-1.58-.38h-3.69l-3.2,12a1.78,1.78,0,0,1-.7,1,2,2,0,0,1-1.24.4h-3.53a1.18,1.18,0,0,1-1-.48,1.14,1.14,0,0,1-.21-1.07L112.13,164Z"/><path class="cls-5" d="M140.54,170.32a1.65,1.65,0,0,0-.56.8l-1.48,5.61a.94.94,0,0,0,.16.85,1,1,0,0,0,.8.4H153.1L152,181.9a2.76,2.76,0,0,1-1,1.45,2.67,2.67,0,0,1-1.65.56H137a5.39,5.39,0,0,1-4.33-2.13,5.56,5.56,0,0,1-1-2.2,5.06,5.06,0,0,1,.08-2.53l2-7.48a7.48,7.48,0,0,1,2.65-4,7.29,7.29,0,0,1,2.11-1.14,7.13,7.13,0,0,1,2.43-.41h8.79a5.16,5.16,0,0,1,2.48.59,5.84,5.84,0,0,1,1.86,1.55,5.31,5.31,0,0,1,1,2.21,5.42,5.42,0,0,1-.06,2.53l-.6,2.25a4.32,4.32,0,0,1-1.59,2.39,4.44,4.44,0,0,1-2.72.9h-10l.66-2.44a2.71,2.71,0,0,1,1-1.45,2.68,2.68,0,0,1,1.68-.56h4a.7.7,0,0,0,.73-.56l.13-.49a.76.76,0,0,0-.73-1h-6.13A1.41,1.41,0,0,0,140.54,170.32Z"/><path class="cls-5" d="M153.07,183.91,159.69,159a1.87,1.87,0,0,1,.71-1.07,2,2,0,0,1,1.23-.42h3.53a1.23,1.23,0,0,1,1,.48,1.15,1.15,0,0,1,.21,1.07l-4.94,18.36a8.51,8.51,0,0,1-1.17,2.64,8.76,8.76,0,0,1-1.91,2,9.1,9.1,0,0,1-2.46,1.32A8.41,8.41,0,0,1,153.07,183.91Z"/><path class="cls-5" d="M167.52,159.86a2.25,2.25,0,0,1,.3-1.13,2.2,2.2,0,0,1,.83-.83,2.17,2.17,0,0,1,1.14-.31,2.28,2.28,0,0,1,1.13.3,2.2,2.2,0,0,1,.83.83,2.26,2.26,0,0,1,.3,1.14,2.17,2.17,0,0,1-.29,1.11,2.24,2.24,0,0,1-2,1.15,2.26,2.26,0,0,1-2-1.14A2.31,2.31,0,0,1,167.52,159.86Zm.31,0a1.84,1.84,0,0,0,.27,1,1.82,1.82,0,0,0,.71.72,2,2,0,0,0,1,.26,1.94,1.94,0,0,0,1.68-1,1.91,1.91,0,0,0,0-2,1.93,1.93,0,0,0-.71-.71,1.9,1.9,0,0,0-1-.26,2,2,0,0,0-2,2Zm2.88-.55a.8.8,0,0,1-.13.43.82.82,0,0,1-.36.27l.71,1.19h-.5l-.63-1.06h-.4v1.06H169v-2.68h.79a1.12,1.12,0,0,1,.73.19A.73.73,0,0,1,170.71,159.31Zm-1.31.46h.32a.61.61,0,0,0,.39-.13.39.39,0,0,0,.15-.32.38.38,0,0,0-.13-.32.67.67,0,0,0-.41-.1h-.32Z"/><rect class="cls-13" x="121.8" y="245.91" width="1496" height="58" rx="3"/><path class="cls-5" d="M124.81,642.41a2.51,2.51,0,0,1-2.51-2.5V380.31h1495v259.6a2.5,2.5,0,0,1-2.5,2.5Z"/><path class="cls-6" d="M1616.8,380.81v259.1a2,2,0,0,1-2,2h-1490a2,2,0,0,1-2-2V380.81h1494m1-1H121.8v260.1a3,3,0,0,0,3,3h1490a3,3,0,0,0,3-3V379.81Z"/><path class="cls-8" d="M124.8,339.91h1490a3,3,0,0,1,3,3v45.68a0,0,0,0,1,0,0H121.8a0,0,0,0,1,0,0V342.91A3,3,0,0,1,124.8,339.91Z"/><path class="cls-5" d="M124.81,1503.41a2.51,2.51,0,0,1-2.51-2.5v-334.6l1495-4v334.6c0,6.5-1.81,6.5-2.5,6.5Z"/><path class="cls-6" d="M1616.8,1162.81v334.1c0,6-1.5,6-2,6h-1490a2,2,0,0,1-2-2v-334.1l1494-4m1-1-1496,4v335.1a3,3,0,0,0,3,3h1490c1.66,0,3-1.34,3-7v-335.1Z"/><path class="cls-8" d="M124.8,1125.91h1490a3,3,0,0,1,3,3v45.68a0,0,0,0,1,0,0H121.8a0,0,0,0,1,0,0v-45.68A3,3,0,0,1,124.8,1125.91Z"/><rect class="cls-5" x="122.3" y="1577.31" width="1495" height="63.1"/><path class="cls-6" d="M1616.8,1577.81v62.1H122.8v-62.1h1494m1-1H121.8v64.1h1496v-64.1Z"/><path class="cls-8" d="M124.8,1536.91h1490a3,3,0,0,1,3,3v45.68a0,0,0,0,1,0,0H121.8a0,0,0,0,1,0,0v-45.68A3,3,0,0,1,124.8,1536.91Z"/><path class="cls-5" d="M124.81,1092.41a2.51,2.51,0,0,1-2.51-2.5V919.31h1495v170.6a2.5,2.5,0,0,1-2.5,2.5Z"/><path class="cls-6" d="M1616.8,919.81v170.1a2,2,0,0,1-2,2h-1490a2,2,0,0,1-2-2V919.81h1494m1-1H121.8v171.1a3,3,0,0,0,3,3h1490a3,3,0,0,0,3-3V918.81Z"/><path class="cls-8" d="M124.8,878.91h1490a3,3,0,0,1,3,3v45.68a0,0,0,0,1,0,0H121.8a0,0,0,0,1,0,0V881.91A3,3,0,0,1,124.8,878.91Z"/><path class="cls-5" d="M124.81,841.41a2.51,2.51,0,0,1-2.51-2.5V720.41h1495v118.5a2.5,2.5,0,0,1-2.5,2.5Z"/><path class="cls-6" d="M1616.8,720.91v118a2,2,0,0,1-2,2h-1490a2,2,0,0,1-2-2v-118h1494m1-1H121.8v119a3,3,0,0,0,3,3h1490a3,3,0,0,0,3-3v-119Z"/><path class="cls-8" d="M124.8,676.07h1490a3,3,0,0,1,3,3v45.68a0,0,0,0,1,0,0H121.8a0,0,0,0,1,0,0V679.07A3,3,0,0,1,124.8,676.07Z"/><rect class="cls-5" x="1650.16" y="281.91" width="581.61" height="551.5" rx="2.5"/><path class="cls-6" d="M2229.27,282.41a2,2,0,0,1,2,2v546.5a2,2,0,0,1-2,2H1652.66a2,2,0,0,1-2-2V284.41a2,2,0,0,1,2-2h576.61m0-1H1652.66a3,3,0,0,0-3,3v546.5a3,3,0,0,0,3,3h576.61a3,3,0,0,0,3-3V284.41a3,3,0,0,0-3-3Z"/><path class="cls-8" d="M1652.66,246.07h576.61a3,3,0,0,1,3,3v49.38a0,0,0,0,1,0,0H1649.66a0,0,0,0,1,0,0V249.07a3,3,0,0,1,3-3Z"/><circle class="cls-14" cx="184.65" cy="435.05" r="24"/><polygon class="cls-15" points="200.85 424.48 184.38 418.49 168.19 423.54 185.99 429.75 200.85 424.48"/><path class="cls-16" d="M186,429.75v13.39a11.61,11.61,0,0,1,14.86-6.7v-12Z"/><path class="cls-16" d="M186,452.66l.38-.15a8.47,8.47,0,0,1-.38-.87Z"/><path class="cls-17" d="M185.18,447.39a11.46,11.46,0,0,1,.81-4.25V429.75l-17.8-6.21v22l17.8,7.15v-1A11.52,11.52,0,0,1,185.18,447.39Zm-1.71,2.83-13.82-5.55v-8.43l13.81,4.94Zm.18-10.43-14.13-4.88v-8.65L183.65,431Z"/><path class="cls-15" d="M169.52,434.91l14.13,4.88V431l-14.13-4.71Zm3.52-4.1,6.61,2.44v1.39L173,432.25Z"/><polygon class="cls-16" points="179.7 433.25 173.04 430.8 173.04 432.25 179.7 434.63 179.7 433.25"/><path class="cls-15" d="M169.65,444.67l13.81,5.55v-9l-13.81-5Zm3.38-3.36,6.62,2.45v1.39L173,442.77Z"/><polygon class="cls-16" points="179.7 443.75 173.04 441.32 173.04 442.76 179.7 445.14 179.7 443.75"/><path class="cls-16" d="M186,440.91v11.93l14.86-9.7v-9.09l-4.62-2.19Z"/><polygon class="cls-17" points="185.99 441.32 185.99 452.66 183.86 447.64 185.99 441.32"/><text class="cls-18" transform="translate(228.56 441.86)">File Manager</text><text class="cls-18" transform="translate(514.56 441.86)">Images</text><text class="cls-18" transform="translate(514.56 516.34)">FTP Accounts</text><text class="cls-18" transform="translate(801.06 441.86)">Directory Privacy</text><text class="cls-19" transform="translate(141.06 370.86)">FILES</text><text class="cls-19" transform="translate(1673.06 275.86)">GENERAL INFORMATION</text><text class="cls-19" transform="translate(1673.06 907.86)">STATISTICS</text><text class="cls-19" transform="translate(141.06 706.86)">DATABASES</text><text class="cls-19" transform="translate(141.06 909.86)">DOMAINS</text><text class="cls-19" transform="translate(141.06 1156.86)">DOMAINS</text><text class="cls-19" transform="translate(141.06 1566.86)">Metrics</text><text class="cls-18" transform="translate(801.06 516.34)">FTP Connections</text><text class="cls-18" transform="translate(1122.06 441.86)">Disk Usage</text><text class="cls-18" transform="translate(228.56 979.13)">Site Publisher</text><text class="cls-18" transform="translate(514.56 979.13)">Domains</text><text class="cls-18" transform="translate(801.06 979.13)">Addon Domains</text><text class="cls-18" transform="translate(228.56 1050.6)">Aliases </text><text class="cls-18" transform="translate(514.56 1050.6)">Redirects</text><text class="cls-18" transform="translate(801.06 1050.6)">Zone Editor</text><text class="cls-18" transform="translate(1122.06 979.13)">Subdomains</text><text class="cls-18" transform="translate(1122.06 524.84)">Backup</text><text class="cls-18" transform="translate(230.56 516.34)">Web Disk</text><text class="cls-18" transform="translate(230.56 588.74)">Backup Wizard</text><text class="cls-18" transform="translate(235.06 789.24)">phpMyAdmin</text><text class="cls-18" transform="translate(521.06 789.24)">MySQL</text><text class="cls-20" transform="translate(573.11 783.91) scale(0.58)">® </text><text class="cls-18" transform="translate(582.41 789.24)">DataBases</text><text class="cls-18" transform="translate(801.06 789.24)">MySQL</text><text class="cls-20" transform="translate(853.11 783.91) scale(0.58)">® </text><text class="cls-18" transform="translate(862.41 789.24)">DataBases Wizard</text><text class="cls-18" transform="translate(1122.06 789.24)">Remote MySQL</text><text class="cls-18" transform="translate(1236.31 783.91) scale(0.58)">®</text><text class="cls-18" transform="translate(514.56 588.74)">Git Version Control</text><text class="cls-18" transform="translate(801.06 588.41)">Files &amp; Directory Restoration</text><rect class="cls-17" x="445.3" y="414.68" width="48" height="40.74"/><path class="cls-15" d="M469,443.55l15.24-18.34,7.29,7.61V419.5a2.91,2.91,0,0,0-2.92-2.91H450a2.92,2.92,0,0,0-2.92,2.91v31.1a2.93,2.93,0,0,0,.82,2l11.85-17.8Z"/><path class="cls-21" d="M450,453.52h10.67l8.28-10-9.21-8.74-11.85,17.83A2.91,2.91,0,0,0,450,453.52Z"/><path class="cls-22" d="M469,443.55l2.54,2.41-1.86,7.55h18.93a2.91,2.91,0,0,0,2.92-2.91V432.83l-7.29-7.61Z"/><polygon class="cls-22" points="468.97 443.55 460.69 453.52 469.66 453.52 471.51 445.97 468.97 443.55"/><ellipse class="cls-23" cx="454.94" cy="424.53" rx="3.71" ry="3.7"/><rect class="cls-17" x="737.65" y="417.69" width="18.59" height="8.75" rx="1.5"/><polygon class="cls-17" points="755.98 418.4 758.16 422.07 756.2 422.4 755.21 421.69 755.98 418.4"/><rect class="cls-15" x="737.33" y="421.11" width="48" height="31.3" rx="1.41"/><rect class="cls-15" x="737.65" y="421.78" width="43.3" height="1.87"/><polygon class="cls-15" points="737.64 421.11 737.75 450.61 740.23 451.17 741.86 438.67 737.64 421.11"/><path class="cls-5" d="M772.78,437.54c-5.7-.07-10.64,6-10.64,6,1.14,1.4,4.71,6,10.63,6s10.63-6,10.63-6S778.48,437.61,772.78,437.54Zm0,10.31a4.29,4.29,0,1,1,4.29-4.29,4.29,4.29,0,0,1-4.29,4.29Z"/><path class="cls-24" d="M772.78,442.07a1.48,1.48,0,0,1,.37-1,2.56,2.56,0,1,0,2.09,2.95,2.48,2.48,0,0,0,0-.77,1.52,1.52,0,0,1-2.14-.22A1.47,1.47,0,0,1,772.78,442.07Z"/><path class="cls-22" d="M772.78,439.27a4.29,4.29,0,1,0,4.29,4.29h0A4.3,4.3,0,0,0,772.78,439.27Zm0,6.88a2.55,2.55,0,1,1,.06-5.1l.36,0a1.52,1.52,0,0,0,2.11,2.18,2.56,2.56,0,0,1-2.19,2.87Z"/><path class="cls-22" d="M1091.45,446.77a9.45,9.45,0,1,0,12.72,12.42l-8.6-3.92Z"/><path class="cls-14" d="M1095.57,445.81h-.18l.21,9.45,8.6,3.92a9.44,9.44,0,0,0-8.6-13.38Z"/><path class="cls-25" d="M1095.31,445.83a9.23,9.23,0,0,0-3.87.94l4.12,8.5Z"/><path class="cls-25" d="M1095.57,455.27l-.18-9.45h0Z"/><path class="cls-26" d="M1084.44,455.31a10.9,10.9,0,0,1,.89-4.36H1067a2,2,0,0,1-2-2v-8.5a2,2,0,0,1,1-1.74l7.51-5.49h0a1.84,1.84,0,0,1,1.28-.52h18.77a1.88,1.88,0,0,1,1.28.52l7.51,5.49a2,2,0,0,1,1,1.74v6.92a11.14,11.14,0,0,1,2.27,3.21,22.88,22.88,0,1,0-14.81,14.76A11.1,11.1,0,0,1,1084.44,455.31Z"/><path class="cls-17" d="M1073,438.49h28.39a2,2,0,0,1,.93.24l-7.51-5.49a1.88,1.88,0,0,0-1.28-.52h-18.69a1.84,1.84,0,0,0-1.28.52h0l-7.51,5.49a2,2,0,0,1,.93-.24Z"/><path class="cls-15" d="M1102.33,438.73a2,2,0,0,0-.93-.24H1067a2,2,0,0,0-2,2V449a2,2,0,0,0,2,2h18.35a11.11,11.11,0,0,1,14.6-5.83,11.25,11.25,0,0,1,3.4,2.27v-7A2,2,0,0,0,1102.33,438.73Zm-31.41,10.58h-2.28V447h2.28Zm3.83,0h-2.29V447h2.28Zm3.83,0h-2.29V447h2.28Zm17.45-6.46a1.21,1.21,0,1,1,1.21-1.21h0A1.21,1.21,0,0,1,1096,442.85Zm4.22,0a1.21,1.21,0,1,1,1.21-1.21h0A1.21,1.21,0,0,1,1100.25,442.85Z"/><circle class="cls-21" cx="1100.25" cy="441.64" r="1.21"/><circle class="cls-27" cx="1096.03" cy="441.64" r="1.21"/><rect class="cls-24" x="1068.64" y="447.03" width="2.28" height="2.28"/><rect class="cls-24" x="1072.46" y="447.03" width="2.28" height="2.28"/><rect class="cls-24" x="1076.29" y="447.03" width="2.28" height="2.28"/><path class="cls-22" d="M189.71,517.13l4.42-2.7A10.08,10.08,0,0,0,189.71,517.13Z"/><path class="cls-22" d="M188.94,521.14l.16.32.16.22.16.38.16.25.13.54h.38s.28.16,0,.73a2.82,2.82,0,0,0,.13,2.31c.38.76.79.76.79.76a2.52,2.52,0,0,0,.38.85c.25.32-.19,1.11-.19,1.11l.27.66s0,1.45.52,1.45c0,0-.38,1,.95,1.17,0,0,.57.09.19-.57l.13-.44v-.41l.82-1.33a.91.91,0,0,1,.57-.66l.47-.13s.6.13.73-1a1.34,1.34,0,0,0,1-1.11,1.6,1.6,0,0,0-.57-1.33h-.62l-.57-.54h-.54a2.9,2.9,0,0,0-.54-1.2l-.35,0s-.09-.32-.89-.25l-.11-.35-1.58-.57-.6.63-.7-.47.06-.47-.54-.38.22-.32.09-.44h-.22s-1-.54,0-1.68l1.07-.09.09.47.32.6.6-.66-.06-.44s.73-.28.76-.82c0,0,.13.13,1.3-.57h.85l-.06-.51h.63l.44-.35-.35-.6.13-.32h-.25l-.38-.38-.38.51h-.28s-.73,1.2-.89-.06l.89-.82h.28l.56-.15s.51.82.76,0c0,0,.41,0,.06-.28v-.24a12.3,12.3,0,0,0-1.34.29l-4.42,2.7a10.56,10.56,0,0,0-1.35,1.78l-.19.71a1.21,1.21,0,0,0,.73,1.54Z"/><path class="cls-26" d="M206.39,525.64v.57l-.19.32v.35l-.38.89-.69.89-.23.44-.16.22a1.29,1.29,0,0,1-.79,1c-.73.35-.85-.25-.85-.25l.16-.47c-.7-.57.22-1.36.22-1.36l.13-.44a3.19,3.19,0,0,0-.09-1.3l.38-.57V525l-.35-.41c.41-1-.51-.82-.51-.82l-.38-.52-.27.32-1,.16a1.26,1.26,0,0,1-.85-.47c-.44-.47-.32-1-.23-.95s.2-.66.2-.66l-.19-.13c-.09-1.58.66-1.58.66-1.58a.69.69,0,0,1,.51-.76c1.86-.6,2.53.33,2.53.33a1.07,1.07,0,0,1,.18-.19.48.48,0,0,1,.61,0c.47.38.28-.16.28-.16l-.25-.53h-.54s-.13-.1-.13-.2-.28.12-.36.18h0v-.2a.45.45,0,0,0-.19-.17c-.1,0-.13.11-.13.11-.63.28-.47-.06-.47-.06.38-.73-.57-.28-.57-.28-.47-.25-.44.28-.44.28s-1.14.82-1.36-.16.7-.35.7-.35l.28-.51H202v-.51l-.35-.26v-.16L201,516h-.17l-.22-.63-.25-.16v-.26h.81A10.22,10.22,0,0,0,197,514h-.47l.65.18h.41l.13.22h.47l-.38.51h-.28c-.13.47-.35.28-.35.28-1.14,1-.82-.6-.82-.6l-.28-.25.39-.33a4.91,4.91,0,0,0-.94.09v.24c.35.32-.06.28-.06.28-.25.82-.76,0-.76,0l-.54.16h-.28l-.89.82c.16,1.26.89.06.89.06h.28l.38-.51.38.38h.32l-.13.32.35.6-.44.35h-.63l.06.51h-.85c-1.17.7-1.3.57-1.3.57,0,.54-.76.82-.76.82l.06.44-.6.66-.32-.6-.09-.47-1.07.09c-1,1.14,0,1.68,0,1.68h.13l-.09.44-.22.32.54.38-.06.47.7.47.6-.63,1.58.57.06.35c.79-.06.89.25.89.25l.38.06a2.9,2.9,0,0,1,.54,1.2h.54l.57.54h.57a1.6,1.6,0,0,1,.57,1.33,1.34,1.34,0,0,1-1,1.11c-.13,1.14-.73,1-.73,1l-.47.13a.91.91,0,0,0-.57.66l-.82,1.33v.41l-.13.44c.38.66-.19.57-.19.57-1.33-.13-.95-1.17-.95-1.17-.47,0-.52-1.45-.52-1.45l-.26-.66s.44-.79.19-1.11a2.52,2.52,0,0,1-.38-.85s-.41,0-.79-.76a2.82,2.82,0,0,1-.13-2.31c.28-.57,0-.73,0-.73h-.42l-.13-.54-.16-.25-.11-.45-.16-.22-.16-.32a1.2,1.2,0,0,1-.77-1.46l.19-.71a10,10,0,0,0,3.5,13.71,10.34,10.34,0,0,0,1.5.72l.13-.22.38.16a.76.76,0,0,1,.6-.44s.09.25.7.44a.81.81,0,0,0,.89-.13l.76.13a.49.49,0,0,1,.64-.22l.06,0a1,1,0,0,0,.7.19l.38-.25H199l.63-.22s.47-.32.79.44v.1a10,10,0,0,0,6.45-8.27Z"/><path class="cls-22" d="M201.83,515.3l-.69-.35h-.81v.25l.25.16.22.63H201l.65.44v.16l.38.28v.51h-.34l-.28.51s-.92-.63-.7.35,1.36.16,1.36.16,0-.54.44-.28c0,0,1-.44.57.28,0,0-.16.35.47.06a.11.11,0,0,1,.13-.11.45.45,0,0,1,.19.17v.2h0c.08-.06.36-.26.36-.18s.13.2.13.2h.54l.25.53s.19.54-.28.16a.48.48,0,0,0-.61,0,1.07,1.07,0,0,0-.18.19s-.66-.93-2.53-.33a.69.69,0,0,0-.51.76s-.76,0-.66,1.58l.19.13s-.11.76-.2.66-.21.47.23,1a1.26,1.26,0,0,0,.85.47l1-.16.27-.32.36.47s.92-.19.51.82l.35.41v.89l-.38.57a3.19,3.19,0,0,1,.09,1.3l-.13.44s-.92.79-.22,1.36l-.16.47s.13.6.85.25a1.29,1.29,0,0,0,.79-1l.16-.22.23-.44.69-.89.38-.89v-.35l.19-.32v-.54l.49-.52A9.82,9.82,0,0,0,207,524h0A10,10,0,0,0,201.83,515.3Z"/><path class="cls-22" d="M199.6,532.84l-.63.22h-.38l-.38.25a1,1,0,0,1-.7-.19.48.48,0,0,0-.66.14.1.1,0,0,0,0,0l-.76-.13a.81.81,0,0,1-.89.13c-.6-.19-.7-.44-.7-.44a.76.76,0,0,0-.6.44l-.38-.16-.13.22a10,10,0,0,0,7.06,0v-.1C200.07,532.52,199.6,532.84,199.6,532.84Z"/><path class="cls-22" d="M196.31,514.64s-.32,1.58.82.6c0,0,.22.19.35-.28h.28l.38-.51h-.48l-.13-.22h-.41l-.65-.18h-.06l-.39.33Z"/><path class="cls-28" d="M185.32,524a11.78,11.78,0,0,1,.93-4.57H167a2.07,2.07,0,0,1-2.07-2.07V508.4a2.08,2.08,0,0,1,1.1-1.82l7.87-5.76h0a2,2,0,0,1,1.34-.55h19.63a2,2,0,0,1,1.34.55l7.87,5.76a2.06,2.06,0,0,1,1.1,1.82v7.24a11.9,11.9,0,0,1,2.33,3.3A24,24,0,1,0,192,534.5,11.66,11.66,0,0,1,185.32,524Z"/><path class="cls-17" d="M173.32,506.33h29.79a2.18,2.18,0,0,1,1,.25l-7.87-5.76a2,2,0,0,0-1.34-.55H175.24a2,2,0,0,0-1.34.55h0L166,506.58a2.18,2.18,0,0,1,1-.25Z"/><path class="cls-15" d="M204.08,506.58a2.18,2.18,0,0,0-1-.25H167a2.11,2.11,0,0,0-2.07,2.07v8.92a2.07,2.07,0,0,0,2.07,2.07h19.25a11.68,11.68,0,0,1,18.93-3.75V508.4A2.06,2.06,0,0,0,204.08,506.58Zm-33,11.06h-2.4v-2.36h2.39Zm4,0h-2.38v-2.36h2.39Zm4,0h-2.36v-2.36h2.39Zm18.31-6.77a1.27,1.27,0,1,1,1.3-1.23h0a1.26,1.26,0,0,1-1.27,1.26Zm4.43,0a1.27,1.27,0,1,1,1.3-1.23h0a1.25,1.25,0,0,1-1.26,1.26Z"/><circle class="cls-21" cx="201.91" cy="509.63" r="1.27"/><circle class="cls-27" cx="197.47" cy="509.63" r="1.27"/><rect class="cls-24" x="168.73" y="515.28" width="2.39" height="2.39"/><rect class="cls-24" x="172.75" y="515.28" width="2.39" height="2.39"/><rect class="cls-24" x="176.77" y="515.28" width="2.39" height="2.39"/><path class="cls-17" d="M479.21,503.28v-5.91a1.87,1.87,0,0,0-1.91-1.82H449.17a1.88,1.88,0,0,0-1.87,1.82V521h2.3a6.55,6.55,0,0,1,12.86,0h16.75Z"/><path class="cls-16" d="M495.3,511.37s-2.46-5.1-3.34-6.68a2.49,2.49,0,0,0-2.29-1.45H479.21V521h.47a6.55,6.55,0,0,1,12.86,0h2.76Z"/><circle class="cls-16" cx="486.21" cy="522.64" r="5.11"/><circle class="cls-16" cx="456.03" cy="522.64" r="5.11"/><circle class="cls-15" cx="456.08" cy="522.59" r="2.41"/><circle class="cls-15" cx="486.21" cy="522.59" r="2.41"/><path class="cls-5" d="M483.12,505.59H489s.62-.09,1.14,1l1.93,3.87v2.35h-4.46l-1.78-2.07h-3.34v-5.1Z"/><path class="cls-26" d="M468.73,510.74l-2.54-1.22s-1.31-.52-.15-1.75,1.2-3.74,1.2-3.74c-.3-4.38-3.7-4.08-3.7-4.08-3.78.19-3.7,4.09-3.7,4.09a7,7,0,0,0,1.42,3.52c1.2,1.27-.64,1.82-.64,1.82l-2.81,1.67c-1.65.75-1.57,3.45-1.57,3.45h14.55C471.24,511.37,468.73,510.74,468.73,510.74Z"/><line class="cls-29" x1="743.04" y1="510.97" x2="749.47" y2="509.05"/><path class="cls-17" d="M769.23,503.29v-5.86a1.87,1.87,0,0,0-1.87-1.84H739.23a1.86,1.86,0,0,0-1.86,1.84V521h2.29a6.54,6.54,0,0,1,12.84,0h16.73Z"/><path class="cls-16" d="M785.29,511.41s-2.46-5.09-3.34-6.67a2.51,2.51,0,0,0-2.28-1.45H769.23V521h.47a6.54,6.54,0,0,1,12.84,0h2.75Z"/><circle class="cls-16" cx="776.22" cy="522.62" r="5.1"/><circle class="cls-16" cx="746.08" cy="522.62" r="5.1"/><circle class="cls-15" cx="746.13" cy="522.56" r="2.4"/><circle class="cls-15" cx="776.22" cy="522.56" r="2.4"/><path class="cls-5" d="M773.13,505.59H779s.61-.09,1.14,1l1.93,3.86v2.35h-4.45l-1.78-2.06h-3.34v-5.15Z"/><circle class="cls-30" cx="752.8" cy="508.53" r="4.13"/><circle class="cls-31" cx="762.29" cy="515.13" r="3.08"/><circle class="cls-31" cx="746.96" cy="501.59" r="2"/><circle class="cls-31" cx="741.94" cy="508.32" r="1.92"/><circle class="cls-31" cx="761.04" cy="501.59" r="2.81"/><rect class="cls-31" x="759.05" y="509.08" width="0.81" height="8.43" transform="translate(-108.67 807.58) rotate(-52.78)"/><rect class="cls-31" x="748.23" y="500.74" width="0.52" height="5.41" transform="translate(-141.49 650.54) rotate(-43.31)"/><rect class="cls-31" x="754.86" y="502.97" width="6.77" height="1.37" transform="translate(-148.81 580.24) rotate(-38.42)"/><rect class="cls-31" x="743.16" y="507.92" width="5.82" height="1.23" transform="matrix(1, 0, 0, 1, -1.06, 1.56)"/><path class="cls-32" d="M1102.52,505l4.42-3.45-15.9-4.41h0V514l5-3.89a15.67,15.67,0,1,1-13.58-5.57v-8.37a23.94,23.94,0,1,0,20.06,8.86Z"/><path class="cls-16" d="M1090.16,522.81h-6.9v-6.93a1.2,1.2,0,0,0-1.2-1.2h-.38a1.2,1.2,0,0,0-1.2,1.2h0v9.74h9.63a1.26,1.26,0,0,0,1.27-1.26v-.28A1.28,1.28,0,0,0,1090.16,522.81Z"/><circle class="cls-16" cx="197.29" cy="595.41" r="9.69"/><circle class="cls-25" cx="197.15" cy="600.64" r="0.42"/><path class="cls-25" d="M203.38,595.91l-.53,2.71s.59,0,.82-1.16S203.38,595.91,203.38,595.91Z"/><path class="cls-25" d="M203.7,595.41a12.93,12.93,0,0,0,.36-2.14,7.2,7.2,0,0,0-.85-3.34c-1.14-2.2-4.1-2.64-4.1-2.64s-5.1-.89-7.45,1.65-1.16,6.2-1.16,6.2.08.32.36.27a.36.36,0,0,0,.28-.36c-.17-.64-.27-1.29-.27-1.29-.28-2.67.72-3.81.72-3.81,1.1-1.76,4.06-2.09,4.06-2.09a9,9,0,0,1,3.11,0,6,6,0,0,1,3.05,1.37,5,5,0,0,1,1.21,2,8.23,8.23,0,0,1,.06,4.15c-.22.07-.42.68-.42.68l-.4,2-.74.74a6.68,6.68,0,0,1-2.07,1.23,9.63,9.63,0,0,1-1.43.35,1,1,0,1,0-.68,1.24,1,1,0,0,0,.68-.68h.08a8.08,8.08,0,0,0,2.31-.68,7.88,7.88,0,0,0,1.82-1.31c.06.28.46.34.46.34a1.69,1.69,0,0,0,1-.57,2.51,2.51,0,0,0,.61-1.67A1.8,1.8,0,0,0,203.7,595.41Zm-6.55,5.67a.42.42,0,1,1,.42-.42h0a.42.42,0,0,1-.42.39Zm6.51-3.58c-.23,1.16-.82,1.16-.82,1.16l.53-2.71s.52.36.3,1.52Z"/><path class="cls-15" d="M197.11,602.14a1.46,1.46,0,0,1-1.46-1.47,1.47,1.47,0,0,1,1.47-1.47,1.45,1.45,0,0,1,1,.39h.08a6.22,6.22,0,0,0,3.56-1.8s.21-1.44.4-2.14c.14-.53.47-.64.62-.66h0v-.46a2.81,2.81,0,0,0,0-.41,5.66,5.66,0,1,0-11.32-.15c0,.13,0,.26,0,.4v.47h0s-.38,2.75,2.63,6.85c0,0,3,4.59,6.44,0a7.41,7.41,0,0,0,.8-1.28,9.42,9.42,0,0,1-2.93,1A1.45,1.45,0,0,1,197.11,602.14Z"/><path class="cls-22" d="M186.36,599.92a16.61,16.61,0,0,1-2.76-33.11v5.79a10.84,10.84,0,0,0,1,21.63h1a11.67,11.67,0,0,1,9.83-10.07v-.73a10.75,10.75,0,0,0-2.44-7l-3.39,2.73V567.52h0l11,3-3,2.39a16.6,16.6,0,0,1,3.61,10.5,8.79,8.79,0,0,1-.06,1.26,11.65,11.65,0,0,1,6.5,5.74,24,24,0,1,0-15.4,15.78A11.74,11.74,0,0,1,186.36,599.92Zm-2.19-20.69V584H189a.82.82,0,0,1,.82.82v.28a.82.82,0,0,1-.82.82h-6.75v-6.73a.82.82,0,0,1,.82-.82h.28A.82.82,0,0,1,184.17,579.23Z"/><path class="cls-15" d="M185.6,594.19h-1a10.84,10.84,0,0,1-1-21.63v-5.75A16.61,16.61,0,0,0,185.67,600l.67-.06A11.4,11.4,0,0,1,185.6,594.19Z"/><path class="cls-15" d="M197.49,572.94l3-2.39-11-3h0v11.59l3.45-2.73a10.77,10.77,0,0,1,2.51,7v.73a11.12,11.12,0,0,1,5.63.53c0-.42.06-.84.06-1.26A16.56,16.56,0,0,0,197.49,572.94Z"/><polygon class="cls-16" points="183.07 585.98 183.35 585.98 183.36 585.98 183.06 585.98 183.07 585.98"/><path class="cls-16" d="M182.38,584.41h1.72v1a.71.71,0,0,0,.07-.32v-1h-1.1A.82.82,0,0,0,182.38,584.41Z"/><path class="cls-16" d="M182.25,585.16V586h.81A.82.82,0,0,1,182.25,585.16Z"/><path class="cls-16" d="M183.07,586a.82.82,0,0,1-.82-.82v-.28a.93.93,0,0,1,.12-.4h-.12v.7a.82.82,0,0,0,.81.82h0Z"/><path class="cls-16" d="M183.41,586h.69v-.48A.8.8,0,0,1,183.41,586Z"/><path class="cls-16" d="M183.08,584h1.1v-4.81a.82.82,0,0,0-.82-.82h-.28a.82.82,0,0,0-.82.82v5.18h.12A.81.81,0,0,1,183.08,584Z"/><path class="cls-16" d="M189,584.06h-4.83v1.11a.71.71,0,0,1-.07.32V586H189a.82.82,0,0,0,.82-.82v-.28A.82.82,0,0,0,189,584.06Z"/><path class="cls-16" d="M182.38,584.41a.93.93,0,0,0-.12.4v.28a.82.82,0,0,0,.82.82h.34a.8.8,0,0,0,.69-.48v-1Z"/><rect class="cls-15" x="170.79" y="766.98" width="17.57" height="4.96"/><path class="cls-31" d="M216.44,765H171.21a1.37,1.37,0,0,0-1.36,1.35V801.5a1.36,1.36,0,0,0,1.36,1.36h45.23a1.36,1.36,0,0,0,1.36-1.36h0V766.33A1.35,1.35,0,0,0,216.44,765Zm-33.82,4.31a1.33,1.33,0,0,1,1.31-1.31h.25a1.31,1.31,0,0,1,1.32,1.31v.25a1.32,1.32,0,0,1-1.31,1.31h-.25a1.33,1.33,0,0,1-1.31-1.31Zm-5.14,0A1.32,1.32,0,0,1,178.8,768h.25a1.32,1.32,0,0,1,1.31,1.31v.25a1.32,1.32,0,0,1-1.31,1.31h-.25a1.33,1.33,0,0,1-1.31-1.3Zm-5.14,0a1.32,1.32,0,0,1,1.32-1.32h.25a1.32,1.32,0,0,1,1.32,1.32v.25a1.32,1.32,0,0,1-1.31,1.31h-.26a1.33,1.33,0,0,1-1.31-1.31Z"/><rect class="cls-24" x="172.35" y="773.2" width="42.77" height="27.16" rx="1.43"/><polygon class="cls-14" points="193.73 786.94 193.73 786.96 193.74 786.95 193.73 786.94"/><path class="cls-17" d="M200.57,779.15h0c-.2-1-1.44-1.79-3.21-2.28a14.62,14.62,0,0,0-7.2,0c-1.79.48-3,1.31-3.24,2.28h0a1.31,1.31,0,0,0,0,.28c0,1.66,3.07,3,6.86,3s6.86-1.35,6.86-3A.89.89,0,0,0,200.57,779.15Z"/><path class="cls-14" d="M193,782.7h0Z"/><path class="cls-31" d="M201.8,779.07c-.1-1.93-3.69-3.48-8.11-3.48s-8,1.55-8.1,3.47v5.18a6.21,6.21,0,0,0,.63.52c.25.18.51.35.77.5a15.17,15.17,0,0,0,13.4,0,6.78,6.78,0,0,0,.77-.5,5.46,5.46,0,0,0,.64-.53v-5.16Zm-8.06,3.64h0Zm6.83-3.56h0a1.31,1.31,0,0,1,0,.28c0,1.66-3.07,3-6.86,3s-6.86-1.35-6.86-3a1.31,1.31,0,0,1,0-.28h0c.21-1,1.45-1.79,3.24-2.28a14.62,14.62,0,0,1,7.2,0c1.77.49,3,1.31,3.21,2.28h.07Z"/><path class="cls-31" d="M201.23,785.75a9,9,0,0,1-1.92,1,16.93,16.93,0,0,1-4.33,1h-1.25a13,13,0,0,1-7.49-2.08,5.68,5.68,0,0,1-.6-.5h0v5.16a8.33,8.33,0,0,0,2.75,1.66,14.32,14.32,0,0,0,3.81.86l1,.06h.56a14.94,14.94,0,0,0,5.34-.93,8.32,8.32,0,0,0,2.7-1.57v-1.5h0v-3.64h0A6.57,6.57,0,0,1,201.23,785.75Z"/><path class="cls-31" d="M193.73,794h-.47l-.94-.09h-.06a13.43,13.43,0,0,1-5-1.35,7.17,7.17,0,0,1-1.67-1.17v3.34c0,2,3.63,3.56,8.11,3.56a11.21,11.21,0,0,0,1.3,0h.06l1.81-.23c2.93-.52,4.93-1.78,4.93-3.26V791.4a7.12,7.12,0,0,1-1.69,1.18A14.07,14.07,0,0,1,193.73,794Z"/><circle class="cls-24" cx="482.89" cy="786.82" r="23.91"/><path class="cls-17" d="M494.13,774h0c-.33-1.58-2.33-3-5.33-3.75a22.43,22.43,0,0,0-6-.75,23,23,0,0,0-5.9.74c-2.94.79-5,2.16-5.33,3.75h0a2.4,2.4,0,0,0-.05.46c0,2.74,5.05,5,11.28,5s11.28-2.22,11.28-5A1.73,1.73,0,0,0,494.13,774Z"/><path class="cls-14" d="M481.69,779.83h1.2C482.49,779.83,482.09,779.81,481.69,779.83Z"/><path class="cls-26" d="M496.23,773.85c-.16-3.17-6.06-5.73-13.33-5.73s-13.1,2.55-13.33,5.72v8.48a11.63,11.63,0,0,0,1,.86,14.27,14.27,0,0,0,1.26.82,24.83,24.83,0,0,0,22,0,11.83,11.83,0,0,0,1.26-.82,9,9,0,0,0,1.06-.88V774S496.23,773.91,496.23,773.85Zm-13.33,6h0ZM494.13,774h0a1.8,1.8,0,0,1,.05.46c0,2.74-5.05,5-11.28,5s-11.28-2.22-11.28-5a2.4,2.4,0,0,1,.05-.46h0c.34-1.59,2.39-3,5.33-3.75a23,23,0,0,1,5.9-.74,22.43,22.43,0,0,1,6,.75c2.9.79,4.9,2.16,5.23,3.74Z"/><path class="cls-26" d="M495.21,784.85a14.36,14.36,0,0,1-3.15,1.72,27.57,27.57,0,0,1-7.12,1.62c-.67,0-1.35.08-2,.08-5.05,0-9.52-1.35-12.33-3.42a11.17,11.17,0,0,1-1-.82h0v8.48a13.65,13.65,0,0,0,4.52,2.72,23.67,23.67,0,0,0,6.26,1.41l1.61.1h.92a24.62,24.62,0,0,0,8.79-1.53,13.74,13.74,0,0,0,4.55-2.74v-2.35h0v-6.06h0A10.29,10.29,0,0,1,495.21,784.85Z"/><path class="cls-26" d="M482.89,798.42h-.77l-1.55-.09h-.09a22,22,0,0,1-8.17-2.22,12.46,12.46,0,0,1-2.75-1.92v5.49c0,3.24,6,5.86,13.35,5.86a18.87,18.87,0,0,0,2.14-.08h.09l3-.37c4.78-.89,8.13-3,8.13-5.4v-5.54a11.9,11.9,0,0,1-2.77,1.94A23.32,23.32,0,0,1,482.89,798.42Z"/><circle class="cls-16" cx="772.14" cy="794.51" r="9.69"/><path class="cls-25" d="M778.56,794.47a12.93,12.93,0,0,0,.36-2.14,7.33,7.33,0,0,0-.85-3.34c-1.14-2.2-4.1-2.64-4.1-2.64s-5.1-.89-7.45,1.65-1.16,6.2-1.16,6.2.08.32.36.27a.36.36,0,0,0,.28-.36c-.17-.64-.27-1.29-.27-1.29-.28-2.67.72-3.81.72-3.81,1.1-1.76,4.06-2.09,4.06-2.09a9,9,0,0,1,3.11,0,6,6,0,0,1,3,1.37,5,5,0,0,1,1.21,2,8.23,8.23,0,0,1,.06,4.15c-.22.07-.42.68-.42.68l-.4,2-.74.74a6.68,6.68,0,0,1-2.07,1.23,9.94,9.94,0,0,1-1.43.35,1,1,0,1,0,0,.56H773a6.92,6.92,0,0,0,4.13-2c.06.28.46.34.46.34a1.72,1.72,0,0,0,1-.57,2.57,2.57,0,0,0,.61-1.67A1.8,1.8,0,0,0,778.56,794.47Z"/><path class="cls-15" d="M772,801.23a1.47,1.47,0,1,1,1-2.55h.08a6.21,6.21,0,0,0,3.56-1.77s.21-1.44.4-2.14c.14-.53.47-.64.62-.66h0v-.46a2.81,2.81,0,0,0,0-.41,5.66,5.66,0,1,0-11.32-.15c0,.13,0,.26,0,.4V794h0s-.38,2.75,2.63,6.85c0,0,3,4.59,6.44,0a8.66,8.66,0,0,0,.76-1.23,9.48,9.48,0,0,1-2.93.94A1.46,1.46,0,0,1,772,801.23Z"/><g class="cls-33"><circle class="cls-24" cx="759.7" cy="782.05" r="24"/><polygon class="cls-24" points="773.17 769.03 771.06 769.03 771.06 769.03 771.06 769.03 773.17 769.03"/><path class="cls-14" d="M773.17,779.14v-.06h0Z"/><path class="cls-17" d="M759.78,774.46c6.25,0,11.32-2.23,11.32-5a2.4,2.4,0,0,0-.05-.46h0c-.33-1.59-2.37-3-5.3-3.76a24.21,24.21,0,0,0-11.92,0c-3,.8-5,2.17-5.35,3.76h0a2.4,2.4,0,0,0-.05.46C748.46,772.24,753.53,774.46,759.78,774.46Z"/><path class="cls-14" d="M758.58,774.91h0Z"/><path class="cls-26" d="M746.41,770.58v6.81a10.39,10.39,0,0,0,1,.87,11.83,11.83,0,0,0,1.26.82,25.1,25.1,0,0,0,22.17,0,11.83,11.83,0,0,0,1.26-.82,9.89,9.89,0,0,0,1.06-.88v-8.49c-.16-3.18-6.08-5.74-13.38-5.74s-13.19,2.55-13.37,5.76v1.67Zm13.37,4.33h0ZM748.5,769h0c.34-1.59,2.4-3,5.35-3.76a24.1,24.1,0,0,1,11.93,0c2.93.8,5,2.17,5.3,3.76h0a2.4,2.4,0,0,1,0,.46c0,2.75-5.07,5-11.32,5s-11.32-2.23-11.32-5a2.4,2.4,0,0,1,0-.46Z"/><path class="cls-26" d="M773.17,779.14h0a11.17,11.17,0,0,1-1,.82,15.23,15.23,0,0,1-3.17,1.73,27.88,27.88,0,0,1-7.15,1.62c-.67,0-1.36.08-2.06.08-5.07,0-9.56-1.35-12.37-3.44a11.17,11.17,0,0,1-1-.82h0v8.51a13.66,13.66,0,0,0,4.54,2.73,23.43,23.43,0,0,0,6.29,1.42l1.61.1.92,0h1a11.66,11.66,0,0,1,11.29-8.76,7.45,7.45,0,0,1,1.06.05v-4Z"/><path class="cls-26" d="M759,793.53l-1.56-.09h-.09a22.11,22.11,0,0,1-8.2-2.23,12,12,0,0,1-2.76-1.93v5.21a1.61,1.61,0,0,0,0,.31c0,3.25,6,5.88,13.4,5.88a18.87,18.87,0,0,0,2.14-.08H762a11.67,11.67,0,0,1-1.56-5.82,10.31,10.31,0,0,1,.07-1.24H759Z"/></g><circle class="cls-5" cx="1096.11" cy="796.53" r="9.39"/><path class="cls-22" d="M1096.26,786.65a9.67,9.67,0,0,0-8.18,14.86l4-3.19a5.31,5.31,0,0,1,.86-6l3.27-2.65,1.4,1.74,2.67-2.12s1.59-.27.94,1.21l-2.59,2.15,1.92,2.44,2.76-2.18s1.54-.24,1,1.21l-2.56,2.09.09.12,1.35,1.77-3.51,2.62a5.53,5.53,0,0,1-5.21,0h0a8.11,8.11,0,0,1-.94-.57l-4,3.16a9.68,9.68,0,1,0,6.69-16.68Z"/><g class="cls-34"><circle class="cls-24" cx="1083.91" cy="784.03" r="23.93"/><polygon class="cls-24" points="1096.93 769.52 1098.44 769.52 1096.93 769.52 1096.93 769.52 1096.93 769.52 1096.93 769.52"/><polygon class="cls-24" points="1088.87 778.72 1088.88 778.71 1088.87 778.7 1088.87 778.72"/><path class="cls-17" d="M1088.88,773.4c4.47,0,8.09-1.59,8.09-3.55a1.82,1.82,0,0,0,0-.33h0c-.24-1.13-1.69-2.11-3.78-2.68a17.19,17.19,0,0,0-8.49,0c-2.15.55-3.62,1.53-3.82,2.67h0a1.82,1.82,0,0,0,0,.33C1080.8,771.81,1084.42,773.4,1088.88,773.4Z"/><path class="cls-24" d="M1088,773.7h0Z"/><polygon class="cls-26" points="1086.26 783.59 1084.75 783.59 1084.75 783.59 1086.26 783.59"/><path class="cls-26" d="M1086.26,783.5v2.21l.81.1,1.15.07h.66a18.9,18.9,0,0,0,2.38-.16,11.53,11.53,0,0,1,4.24-1.07,9.48,9.48,0,0,0,3-1.83v-1.74h0v-4.35h0a6.62,6.62,0,0,1-.7.59,10.8,10.8,0,0,1-2.26,1.24,19.77,19.77,0,0,1-5.1,1.16c-.48,0-1,.06-1.47.06a15.26,15.26,0,0,1-8.83-2.45,7.8,7.8,0,0,1-.7-.59h0v2.84C1083.26,780.05,1086.16,781.62,1086.26,783.5Z"/><path class="cls-26" d="M1089.07,787h-.75l-1.1-.1h-.07a6.71,6.71,0,0,1-.9-.12v2.73a6.51,6.51,0,0,1-.76.63,10.71,10.71,0,0,1-.9.59,11,11,0,0,1-1.2.58,15.83,15.83,0,0,0,1.68.41l.51-.35A11.62,11.62,0,0,1,1089.07,787Z"/><path class="cls-26" d="M1097.56,784.67a5.07,5.07,0,0,1,.87.13V784A7.56,7.56,0,0,1,1097.56,784.67Z"/><polygon class="cls-14" points="1076.69 792.78 1076.69 792.8 1076.7 792.79 1076.69 792.78"/><path class="cls-17" d="M1084.75,783.59h0c-.24-1.13-1.69-2.11-3.78-2.68a15.4,15.4,0,0,0-1.64-.34,17.81,17.81,0,0,0-2.63-.2,16.73,16.73,0,0,0-4.22.54c-2.11.57-3.58,1.55-3.82,2.68h0a1.82,1.82,0,0,0,0,.33c0,2,3.62,3.55,8.09,3.55a17.81,17.81,0,0,0,2.63-.2,11.07,11.07,0,0,0,3.77-1.19,4.48,4.48,0,0,0,1.1-.83,2,2,0,0,0,.6-1.33A1.39,1.39,0,0,0,1084.75,783.59Z"/><path class="cls-14" d="M1075.88,787.78h0Z"/><path class="cls-35" d="M1085.39,791.82l-.32-.06a9.16,9.16,0,0,1-.81.49,16.59,16.59,0,0,1-7.56,1.66h-.55l-1.11-.06H1075a15.93,15.93,0,0,1-5.85-1.59,8.59,8.59,0,0,1-2-1.38v3.94c0,2.32,4.28,4.2,9.57,4.2a13.13,13.13,0,0,0,1.53-.06h.07l2.14-.27a12,12,0,0,0,4.14-1.49v-.94A11.62,11.62,0,0,1,1085.39,791.82Z"/><path class="cls-35" d="M1085.58,791.41l-.51.35.32.06C1085.45,791.68,1085.52,791.54,1085.58,791.41Z"/><path class="cls-35" d="M1086.26,783.5c-.1-1.88-3-3.45-6.93-3.94a21,21,0,0,0-2.63-.16c-5.2,0-9.42,1.82-9.55,4.09v6.08a8.81,8.81,0,0,0,.75.62,10.71,10.71,0,0,0,.9.59,16.34,16.34,0,0,0,7.9,1.84,17.27,17.27,0,0,0,6.7-1.26,11,11,0,0,0,1.2-.58,10.71,10.71,0,0,0,.9-.59,6.51,6.51,0,0,0,.76-.63V783.5Zm-1.51.1h0a1.82,1.82,0,0,1,0,.33,2,2,0,0,1-.6,1.33,4.48,4.48,0,0,1-1.1.83,11.07,11.07,0,0,1-3.77,1.19,17.81,17.81,0,0,1-2.63.2c-4.41,0-8-1.57-8-3.57a1.82,1.82,0,0,1,0-.33h0c.26-1.13,1.75-2.11,3.86-2.67a16.3,16.3,0,0,1,4.23-.53,17.81,17.81,0,0,1,2.63.2,15.4,15.4,0,0,1,1.64.34c2.09.57,3.54,1.55,3.78,2.68h0Z"/><path class="cls-26" d="M1098.44,769.42c-.12-2.28-4.35-4.11-9.56-4.11s-9.42,1.83-9.55,4.1v6.08a8.81,8.81,0,0,0,.75.62,10.71,10.71,0,0,0,.9.59,17.92,17.92,0,0,0,15.8,0,10.71,10.71,0,0,0,.9-.59,6.51,6.51,0,0,0,.76-.63v-6.05Zm-1.51.1h0a1.82,1.82,0,0,1,0,.33c0,2-3.62,3.55-8.09,3.55s-8.09-1.59-8.09-3.55a1.82,1.82,0,0,1,0-.33h0c.24-1.14,1.71-2.12,3.82-2.68a17.19,17.19,0,0,1,8.49,0c2.09.57,3.54,1.55,3.78,2.68h.09Z"/></g><text class="cls-18" transform="translate(228.56 1234.08)">Email Accounts</text><text class="cls-18" transform="translate(514.56 1234.08)">Forwarders</text><text class="cls-18" transform="translate(228.56 1641.08)">Visitors</text><text class="cls-18" transform="translate(514.56 1641.08)">Errors</text><text class="cls-18" transform="translate(514.56 1298.69)">Track Delivery</text><text class="cls-18" transform="translate(805.06 1234.08)">Email Routing</text><text class="cls-18" transform="translate(805.06 1643.08)">Bandwidth</text><text class="cls-18" transform="translate(805.06 1298.69)">Global Email Filters</text><text class="cls-18" transform="translate(1122.06 1234.08)">Autoresponders</text><text class="cls-18" transform="translate(1122.06 1642.08)">Raw Access</text><text class="cls-18" transform="translate(1122.06 1298.69)">Email Filters</text><text class="cls-18" transform="translate(230.56 1298.69)">Default Address</text><text class="cls-18" transform="translate(230.56 1373.03)">Authentication</text><text class="cls-18" transform="translate(230.56 1443.02)">Calendars &amp; Contacts</text><text class="cls-18" transform="translate(514.56 1443.02)">Email Disk Usage</text><text class="cls-18" transform="translate(514.56 1373.03)">Address Importer</text><text class="cls-18" transform="translate(805.06 1373.03)">Encryption</text><text class="cls-18" transform="translate(1123.06 1373.03)">Configure Greylisting</text><path class="cls-28" d="M174.51,976.86a20.08,20.08,0,0,1,14.29-9.62,17.22,17.22,0,0,1,1.9-.19h1.08a20.06,20.06,0,0,1,8.42,1.85c.48.22.94.45,1.4.71a20.07,20.07,0,0,1,10.31,17.52h0v.41a24,24,0,1,0-40.2,0v-.42A20,20,0,0,1,174.51,976.86Z"/><path class="cls-22" d="M177.23,973.28l8.91-5.44A20.14,20.14,0,0,0,177.23,973.28Z"/><path class="cls-26" d="M180.53,995.63c.19-.5.33-1.14.05-1.49a5.46,5.46,0,0,1-.78-1.72s-.83,0-1.59-1.53a5.72,5.72,0,0,1-.25-4.65c.57-1.15,0-1.46,0-1.46h-.75L177,983.7l-.32-.51-.32-.72L176,982l-.32-.64a2.43,2.43,0,0,1-1.56-3h0l.39-1.43a20,20,0,0,0-2.82,10.24v.42A24.22,24.22,0,0,0,180.53,995.63Z"/><path class="cls-22" d="M187.14,996.11l1-.25s1.21.25,1.46-2a2.74,2.74,0,0,0,2-2.23,3.18,3.18,0,0,0-1.15-2.67h-1.21l-1.15-1.08-1.08.06a5.72,5.72,0,0,0-1.08-2.47l-.76-.13s-.19-.64-1.78-.51l-.13-.7L180.08,983l-1.22,1.29-1.4-1,.13-1-1.08-.76.45-.64.19-.89h-.45s-2-1.08,0-3.37l2.16-.14.19,1,.64,1.21,1.21-1.34-.1-.87s1.46-.57,1.53-1.65c0,0,.25.25,2.61-1.15h1.72l-.13-1h1.27l.89-.7-.7-1.21.25-.64h-.64l-.8-.8-.76,1-.57.06s-1.46,2.42-1.78-.13l1.78-1.65H186l1.08-.32s1,1.65,1.53,0c0,0,.83.06.13-.57v-.48a19.42,19.42,0,0,0-2.7.59l-8.85,5.46a20.31,20.31,0,0,0-2.72,3.59l-.39,1.43a2.43,2.43,0,0,0,1.56,3.05h0l.32.64.32.45.32.76.32.51.25,1.08H178s.57.32,0,1.46a5.72,5.72,0,0,0,.25,4.65c.76,1.53,1.59,1.53,1.59,1.53a5.42,5.42,0,0,0,.76,1.72c.28.35.13,1,0,1.49a24.07,24.07,0,0,0,5.28,2.05l.15-.24A1.77,1.77,0,0,1,187.14,996.11Z"/><path class="cls-26" d="M208.2,977.53l-.51-1.06h-1.08s-.25-.2-.25-.39-.57.25-.72.37h0v-.39a.77.77,0,0,0-.37-.34c-.2-.06-.26.21-.26.21-1.27.57-1-.13-1-.13.76-1.46-1.15-.57-1.15-.57-1-.51-.89.57-.89.57s-2.3,1.67-2.74-.33,1.4-.7,1.4-.7l.57-1H202v-1l-.76-.57v-.32l-1.3-.89h-.35l-.45-1.27-.51-.32v-.53h1.63A19.9,19.9,0,0,0,191.8,967h-1l1.32.36H193l.25.45h1l-.76,1h-.57c-.25,1-.7.57-.7.57-2.29,2-1.65-1.21-1.65-1.21l-.57-.51.79-.67a16.08,16.08,0,0,0-1.9.19v.48c.7.64-.13.57-.13.57-.51,1.65-1.53,0-1.53,0l-1.08.32h-.57l-1.83,1.69c.32,2.55,1.78.13,1.78.13l.57-.06.76-1,.76.76h.64l-.25.64.7,1.21-.89.7H186.5l.13,1h-1.72c-2.35,1.4-2.61,1.15-2.61,1.15-.06,1.07-1.5,1.67-1.5,1.67l.13.89-1.24,1.31-.63-1.2-.19-1-2.16.19c-2,2.29,0,3.37,0,3.37h.45l-.19.89-.45.64,1.08.76-.13,1,1.4,1,1.21-1.27,3.18,1.15.13.7c1.59-.13,1.78.51,1.78.51l.76.13A5.58,5.58,0,0,1,187,988l1.08-.06,1.15,1.08h1.15a3.18,3.18,0,0,1,1.15,2.67,2.74,2.74,0,0,1-2,2.23c-.25,2.29-1.46,2-1.46,2l-1,.25a1.76,1.76,0,0,0-1.09,1.34l-.15.24a24,24,0,0,0,19.43-3.39,7.84,7.84,0,0,0-.25-2.26l.78-1.17v-1.78l-.7-.83c.83-2-1-1.65-1-1.65l-.72-1-.55.64-2,.32a2.6,2.6,0,0,1-1.72-1c-.89-1-.64-2.1-.46-1.91s.4-1.34.4-1.34l-.38-.25c-.19-3.18,1.34-3.18,1.34-3.18a1.36,1.36,0,0,1,1-1.53c3.75-1.21,5.09.65,5.09.65a1.41,1.41,0,0,1,.36-.37,1,1,0,0,1,1.23.1C208.58,978.61,208.2,977.53,208.2,977.53Z"/><path class="cls-22" d="M211.91,987.13a20.07,20.07,0,0,0-10.29-17.55c-.45-.26-.92-.49-1.4-.71h-1.63v.51l.51.32.45,1.27h.35l1.3.89v.32l.76.57v1h-.76l-.57,1s-1.83-1.28-1.4.72,2.74.32,2.74.32-.06-1.08.89-.57c0,0,1.91-.89,1.15.57,0,0-.32.7,1,.13,0,0,.06-.27.26-.21a.77.77,0,0,1,.37.34v.42h0c.16-.12.72-.53.72-.37s.25.39.25.39h1.08l.51,1.07s.38,1.08-.57.32a1,1,0,0,0-1.23-.1,1.41,1.41,0,0,0-.36.37s-1.34-1.9-5.09-.68a1.36,1.36,0,0,0-1,1.53s-1.53,0-1.34,3.18l.38.25s-.22,1.53-.4,1.34-.43,1,.46,1.91a2.6,2.6,0,0,0,1.72,1l2-.32.55-.64.72,1s1.85-.38,1,1.65l.7.83V991l-.76,1.15a7.84,7.84,0,0,1,.25,2.26,24.07,24.07,0,0,0,6.63-6.75v-.41Z"/><path class="cls-22" d="M190.51,968.24s-.64,3.18,1.65,1.21c0,0,.45.38.7-.57h.57l.76-1h-1l-.25-.45h-.83l-1.31-.38h-.12l-.79.67Z"/><polygon class="cls-5" points="172.32 973.73 204.97 957.51 193.8 986.58 182.51 980.89 178.5 977.89 172.32 973.73"/><polygon class="cls-15" points="204.42 958.06 178.5 977.89 182.55 986.07 182.51 980.89 204.42 958.06"/><polygon class="cls-17" points="182.51 980.89 186.05 982.67 182.55 986.07 182.51 980.89"/><path class="cls-24" d="M762,986.63a11.54,11.54,0,0,1,.43-3.1H746.17a4.85,4.85,0,0,1-4.87-4.8v-8.52a4.85,4.85,0,0,1,4.85-4.85h30.3a4.85,4.85,0,0,1,4.85,4.85v8a11.39,11.39,0,0,1,2.59,3.52A23.71,23.71,0,1,0,768.54,997,11.53,11.53,0,0,1,762,986.63Z"/><path class="cls-28" d="M760,972.73a1.34,1.34,0,0,0-1.13.52,2.35,2.35,0,0,0-.41,1.48c0,1.33.52,2,1.55,2s1.53-.67,1.48-2S761,972.73,760,972.73Z"/><path class="cls-28" d="M776.22,967.64H746.41a2.94,2.94,0,0,0-2.94,2.94h0v7.74a2.94,2.94,0,0,0,2.94,2.94H763.3a11.36,11.36,0,0,1,2.4-3.1H765v-6.9H767v1.07h0a2.43,2.43,0,0,1,.9-.9,2.35,2.35,0,0,1,1.26-.35,1.91,1.91,0,0,1,1.94,1.29,2.45,2.45,0,0,1,2.24-1.29c1.45,0,2.18.92,2.18,2.77v1.43a11,11,0,0,1,3.6,1.3v-6A2.93,2.93,0,0,0,776.22,967.64ZM748.56,978a1.29,1.29,0,0,1-.89.31,1.22,1.22,0,0,1-.85-.32,1.08,1.08,0,0,1-.34-.79,1,1,0,0,1,.35-.79,1.26,1.26,0,0,1,.87-.31,1.13,1.13,0,0,1,.86.31,1.11,1.11,0,0,1,0,1.57l0,0Zm6.87-4.79a2.23,2.23,0,0,0-1.44-.5,1.86,1.86,0,0,0-1.41.54,2.33,2.33,0,0,0,0,2.91,1.85,1.85,0,0,0,1.36.52,2.73,2.73,0,0,0,1.51-.5v1.71a4.08,4.08,0,0,1-2,.42,3.42,3.42,0,0,1-3.49-3.49,3.51,3.51,0,0,1,3.21-3.79,2.44,2.44,0,0,1,.54,0,3.25,3.25,0,0,1,1.71.32Zm7.21,4.11a3.75,3.75,0,0,1-5.3-5.3,3.61,3.61,0,0,1,2.68-1,3.3,3.3,0,0,1,3.56,3,4.17,4.17,0,0,1,0,.5,3.72,3.72,0,0,1-.94,2.77Z"/><path class="cls-28" d="M772.43,972.73a1,1,0,0,0-.83.45,1.88,1.88,0,0,0-.3,1.11v1a10.87,10.87,0,0,1,2.2-.22h0v-.88C773.5,973.21,773.14,972.73,772.43,972.73Z"/><path class="cls-28" d="M768.17,972.73a1,1,0,0,0-.85.43,1.92,1.92,0,0,0-.32,1.17v2.77a10.87,10.87,0,0,1,2.21-1.17v-1.75C769.22,973.21,768.87,972.73,768.17,972.73Z"/><path class="cls-17" d="M747.7,976.1a1.26,1.26,0,0,0-.87.31,1,1,0,0,0-.35.79,1.08,1.08,0,0,0,.34.79,1.22,1.22,0,0,0,.85.32,1.29,1.29,0,0,0,.89-.31,1.11,1.11,0,0,0,0-1.57l0,0A1.18,1.18,0,0,0,747.7,976.1Z"/><path class="cls-17" d="M751,972.1a3.71,3.71,0,0,0-1,2.77,3.42,3.42,0,0,0,3.49,3.49,4.08,4.08,0,0,0,2-.42v-1.75a2.73,2.73,0,0,1-1.51.5,1.85,1.85,0,0,1-1.36-.52,2.35,2.35,0,0,1,0-2.92,1.88,1.88,0,0,1,1.36-.52,2.23,2.23,0,0,1,1.44.5v-1.82a3.25,3.25,0,0,0-1.71-.32A3.69,3.69,0,0,0,751,972.1Z"/><path class="cls-17" d="M760.06,971.09a3.44,3.44,0,0,0-3.68,3.68,3.75,3.75,0,0,0,6.3,2.62,3.69,3.69,0,0,0,1-2.71,3.3,3.3,0,0,0-3.06-3.53,2.79,2.79,0,0,0-.5,0Zm0,5.6c-1,0-1.55-.67-1.55-2a2.32,2.32,0,0,1,.41-1.47,1.34,1.34,0,0,1,1.1-.49c1,0,1.49.64,1.49,1.93s-.49,2-1.48,2.07Z"/><path class="cls-17" d="M767,974.32a1.9,1.9,0,0,1,.29-1.17,1,1,0,0,1,.85-.43c.7,0,1.05.48,1.05,1.46v1.75a11,11,0,0,1,2.1-.61v-1a1.93,1.93,0,0,1,.32-1.12,1,1,0,0,1,.83-.45c.71,0,1.07.5,1.07,1.5v.88a11,11,0,0,1,2.06.19v-1.46c0-1.85-.73-2.77-2.18-2.77a2.45,2.45,0,0,0-2.24,1.29,1.91,1.91,0,0,0-1.94-1.29,2.35,2.35,0,0,0-1.26.35,2.43,2.43,0,0,0-.9.9h0v-1.08H765v6.9h.74A11.14,11.14,0,0,1,767,977.1Z"/><path class="cls-26" d="M776.47,965.36h-30.3a4.84,4.84,0,0,0-4.87,4.83v8.54a4.85,4.85,0,0,0,4.87,4.8h16.22a11.51,11.51,0,0,1,.9-2.28H746.41a2.94,2.94,0,0,1-2.94-2.94h0v-7.73a2.94,2.94,0,0,1,2.94-2.94h29.81a2.93,2.93,0,0,1,2.94,2.94v6a11.53,11.53,0,0,1,2.14,1.61v-8A4.85,4.85,0,0,0,776.47,965.36Z"/><circle class="cls-22" cx="773.5" cy="986.72" r="9.63"/><path class="cls-36" d="M772.53,979.5H774v6.38h6.14v1.42h-6.13v6.43h-1.52V987.3h-6.14v-1.42h6.14Z"/><circle class="cls-24" cx="1083.83" cy="974.45" r="24"/><rect class="cls-28" x="1064.72" y="966.21" width="38.31" height="16.26" rx="3.81"/><path class="cls-17" d="M1074.46,978.6v-1.45a4.36,4.36,0,0,0,.85.39,3.11,3.11,0,0,0,.8.13,1.76,1.76,0,0,0,.72-.12.42.42,0,0,0,.26-.39.36.36,0,0,0-.12-.28.92.92,0,0,0-.31-.2,2.86,2.86,0,0,0-.41-.15l-.42-.16a4.53,4.53,0,0,1-.59-.28,2.06,2.06,0,0,1-.43-.35,1.61,1.61,0,0,1-.26-.46,2.15,2.15,0,0,1-.09-.61,1.59,1.59,0,0,1,.2-.83,1.76,1.76,0,0,1,.55-.57,2.32,2.32,0,0,1,.78-.33,4,4,0,0,1,.91-.1,4.74,4.74,0,0,1,.75.06,4.55,4.55,0,0,1,.75.17v1.38a2.28,2.28,0,0,0-.7-.3,2.57,2.57,0,0,0-.73-.1h-.32a1.14,1.14,0,0,0-.26.09.43.43,0,0,0-.18.15.38.38,0,0,0-.07.21.45.45,0,0,0,.1.27,1,1,0,0,0,.26.19,2.63,2.63,0,0,0,.35.15l.38.13a3.42,3.42,0,0,1,.62.27,1.82,1.82,0,0,1,.48.34,1.21,1.21,0,0,1,.31.46,1.86,1.86,0,0,1-.11,1.51,1.69,1.69,0,0,1-.57.59,2.66,2.66,0,0,1-.82.33,5.61,5.61,0,0,1-2.68-.14Z"/><path class="cls-17" d="M1085.06,978.75h-1.72v-.88h0a2,2,0,0,1-1.71,1c-1.29,0-1.94-.81-1.94-2.43V973h1.72v3.33c0,.81.32,1.22.94,1.22a.91.91,0,0,0,.74-.33,1.37,1.37,0,0,0,.28-.91V973h1.72Z"/><path class="cls-17" d="M1088.26,978.08h0v.67h-1.75v-8.54h1.72v3.64h0a2.16,2.16,0,0,1,3.48-.23,3.32,3.32,0,0,1,.58,2.1,3.58,3.58,0,0,1-.68,2.32,2.23,2.23,0,0,1-1.82.87A1.76,1.76,0,0,1,1088.26,978.08Zm0-2.43v.59a1.4,1.4,0,0,0,.31.92,1,1,0,0,0,.8.37,1,1,0,0,0,.91-.47,2.31,2.31,0,0,0,.32-1.33,1.77,1.77,0,0,0-.3-1.12,1,1,0,0,0-.85-.4,1.07,1.07,0,0,0-.86.4,1.54,1.54,0,0,0-.38,1Z"/><path class="cls-17" d="M1094.21,978.89a1,1,0,0,1-.71-.27,1,1,0,0,1-.28-.67.85.85,0,0,1,.29-.67,1,1,0,0,1,.73-.26,1,1,0,0,1,.72.26.93.93,0,0,1,0,1.31l0,0A1.07,1.07,0,0,1,1094.21,978.89Z"/><path class="cls-26" d="M1099.2,965.26h-30.66a4.91,4.91,0,0,0-4.91,4.91v8.57a4.91,4.91,0,0,0,4.91,4.91h30.66a4.91,4.91,0,0,0,4.91-4.91v-8.57A4.91,4.91,0,0,0,1099.2,965.26Zm2.73,13.11a3,3,0,0,1-3,3h-30.1a3,3,0,0,1-3-3v-7.84a3,3,0,0,1,3-3H1099a3,3,0,0,1,3,3Z"/><path class="cls-24" d="M194.54,1058.17A11.83,11.83,0,0,1,195,1055H178.62a4.89,4.89,0,0,1-4.89-4.89v-8.54a4.89,4.89,0,0,1,4.85-4.93h30.6a4.89,4.89,0,0,1,4.89,4.89v8a11.55,11.55,0,0,1,2.59,3.53,23.91,23.91,0,1,0-15.48,15.58A11.63,11.63,0,0,1,194.54,1058.17Z"/><path class="cls-28" d="M192.58,1044.14a1.37,1.37,0,0,0-1.14.52,2.41,2.41,0,0,0-.41,1.48c0,1.33.53,2,1.57,2s1.55-.69,1.49-2.06S193.59,1044.14,192.58,1044.14Z"/><path class="cls-28" d="M208.93,1039H178.86a3,3,0,0,0-3,3v7.8a3,3,0,0,0,3,3h17a11.73,11.73,0,0,1,2.42-3.13h-.75v-7h2.08v1.09h0a2.53,2.53,0,0,1,.9-.91,2.47,2.47,0,0,1,1.29-.37,1.93,1.93,0,0,1,2,1.3,2.47,2.47,0,0,1,2.26-1.3c1.47,0,2.2.93,2.2,2.8v1.45a11.37,11.37,0,0,1,3.63,1.31V1042A3,3,0,0,0,208.93,1039ZM181,1049.47a1.28,1.28,0,0,1-.9.32,1.18,1.18,0,0,1-.85-.33,1.1,1.1,0,0,1-.34-.8,1,1,0,0,1,.35-.8,1.3,1.3,0,0,1,.88-.31,1.21,1.21,0,0,1,.87.32,1.11,1.11,0,0,1,0,1.58l0,0Zm6.93-4.79a2.3,2.3,0,0,0-1.45-.5,1.9,1.9,0,0,0-1.42.54,2.08,2.08,0,0,0-.52,1.49,2,2,0,0,0,.5,1.45,1.84,1.84,0,0,0,1.37.53,2.66,2.66,0,0,0,1.52-.5v1.73a4.05,4.05,0,0,1-2,.42,3.37,3.37,0,0,1-2.51-1,3.45,3.45,0,0,1-1-2.51,3.54,3.54,0,0,1,3.24-3.82h.54a3.38,3.38,0,0,1,1.72.33Zm7.27,4.14a3.62,3.62,0,0,1-2.69,1,3.58,3.58,0,0,1-2.65-1,4.08,4.08,0,0,1,0-5.35,3.67,3.67,0,0,1,2.7-1,3.33,3.33,0,0,1,3.59,3,4.17,4.17,0,0,1,0,.5,3.73,3.73,0,0,1-1,2.76Z"/><path class="cls-28" d="M205.11,1044.14a1,1,0,0,0-.84.46,2,2,0,0,0-.32,1.08v1a11.07,11.07,0,0,1,2.22-.22h0v-.78C206.18,1044.65,205.83,1044.14,205.11,1044.14Z"/><path class="cls-28" d="M200.8,1044.14a1,1,0,0,0-.85.43,2,2,0,0,0-.32,1.18v2.79a11.9,11.9,0,0,1,2.23-1.18v-1.75C201.87,1044.63,201.52,1044.14,200.8,1044.14Z"/><path class="cls-17" d="M180.16,1047.55a1.3,1.3,0,0,0-.88.31,1,1,0,0,0-.35.8,1.1,1.1,0,0,0,.34.8,1.18,1.18,0,0,0,.85.33,1.28,1.28,0,0,0,.9-.32,1.12,1.12,0,0,0,0-1.59l0,0A1.22,1.22,0,0,0,180.16,1047.55Z"/><path class="cls-17" d="M183.48,1043.52a3.79,3.79,0,0,0-1,2.8,3.45,3.45,0,0,0,1,2.51,3.37,3.37,0,0,0,2.51,1,4.05,4.05,0,0,0,2-.42v-1.73a2.66,2.66,0,0,1-1.52.5,1.84,1.84,0,0,1-1.37-.53,2,2,0,0,1-.5-1.45,2.06,2.06,0,0,1,.49-1.52,1.9,1.9,0,0,1,1.42-.54,2.3,2.3,0,0,1,1.45.5v-1.82a3.38,3.38,0,0,0-1.72-.33A3.72,3.72,0,0,0,183.48,1043.52Z"/><path class="cls-17" d="M192.62,1042.49a3.45,3.45,0,0,0-3.7,3.7,3.62,3.62,0,0,0,1,2.65,3.58,3.58,0,0,0,2.65,1,3.62,3.62,0,0,0,2.69-1,3.75,3.75,0,0,0,1-2.74,3.31,3.31,0,0,0-3.09-3.55,2.09,2.09,0,0,0-.5,0Zm0,5.65c-1,0-1.57-.67-1.57-2a2.42,2.42,0,0,1,.39-1.46,1.37,1.37,0,0,1,1.14-.52c1,0,1.51.65,1.51,1.95s-.49,2-1.49,2Z"/><path class="cls-17" d="M199.64,1045.75a2,2,0,0,1,.32-1.18,1,1,0,0,1,.85-.43c.71,0,1.06.49,1.06,1.47v1.76a11.78,11.78,0,0,1,2.08-.61v-1.08a2,2,0,0,1,.32-1.13,1,1,0,0,1,.84-.46c.72,0,1.08.5,1.08,1.51v.89a11,11,0,0,1,2.07.2v-1.4c0-1.87-.73-2.8-2.2-2.8a2.47,2.47,0,0,0-2.26,1.3,1.93,1.93,0,0,0-2-1.3,2.51,2.51,0,0,0-1.27.35,2.53,2.53,0,0,0-.9.91h0v-1.07h-2.07v7h.75a11.33,11.33,0,0,1,1.33-1.07Z"/><path class="cls-26" d="M209.18,1036.68H178.62a4.89,4.89,0,0,0-4.89,4.89v8.54a4.89,4.89,0,0,0,4.89,4.89H195a11.72,11.72,0,0,1,.91-2.3h-17a3,3,0,0,1-3-3h0V1042a3,3,0,0,1,3-3h30a3,3,0,0,1,3,3v6.07a11.75,11.75,0,0,1,2.14,1.63v-8a4.89,4.89,0,0,0-4.78-5Z"/><circle class="cls-37" cx="206.18" cy="1058.26" r="9.71"/><path class="cls-38" d="M212.57,1056.05H199.15v-1.37h13.42Zm0,5H199.15v-1.37h13.42Z"/><path class="cls-24" d="M481.54,1058.2a11.77,11.77,0,0,1,.44-3.13H465.62a4.89,4.89,0,0,1-4.89-4.89v-8.54a4.88,4.88,0,0,1,4.89-4.89h30.56a4.88,4.88,0,0,1,4.89,4.89v8a11.55,11.55,0,0,1,2.59,3.53,23.89,23.89,0,1,0-15.48,15.52A11.65,11.65,0,0,1,481.54,1058.2Z"/><path class="cls-28" d="M479.58,1044.16a1.35,1.35,0,0,0-1.14.52,2.41,2.41,0,0,0-.41,1.48c0,1.33.53,2,1.57,2s1.55-.69,1.49-2.06S480.59,1044.16,479.58,1044.16Z"/><path class="cls-28" d="M492.11,1044.16a1,1,0,0,0-.84.46,1.94,1.94,0,0,0-.32,1.13v1a11.07,11.07,0,0,1,2.22-.22h0v-.89C493.18,1044.65,492.83,1044.16,492.11,1044.16Z"/><path class="cls-28" d="M487.8,1044.16a1,1,0,0,0-.85.43,2,2,0,0,0-.32,1.18v2.79a11.34,11.34,0,0,1,2.23-1.18v-1.74C488.87,1044.65,488.52,1044.16,487.8,1044.16Z"/><circle class="cls-35" cx="493.18" cy="1058.51" r="9.71"/><path class="cls-39" d="M497.88,1053.59H487.4v2h9a.86.86,0,0,1,.92.81.61.61,0,0,1,0,.19v3.7a.87.87,0,0,1-.73,1h-5.69v-1l-3.45,2,3.45,2v-1h7a1.5,1.5,0,0,0,1.46-1.46v-6.78a1.46,1.46,0,0,0-1.46-1.46Z"/><rect class="cls-28" x="462.54" y="1038.76" width="36.37" height="7.8"/><path class="cls-28" d="M496,1039.05H465.88a3,3,0,0,0-3,3v7.8a3,3,0,0,0,3,3h17a11.57,11.57,0,0,1,2.42-3.13h-.75v-7h2.08v1.09h0a2.53,2.53,0,0,1,.9-.91,2.32,2.32,0,0,1,1.27-.35,1.92,1.92,0,0,1,2,1.3,2.47,2.47,0,0,1,2.26-1.3c1.47,0,2.2.93,2.2,2.8v1.45a11.13,11.13,0,0,1,3.63,1.31V1042A3,3,0,0,0,496,1039.05Zm-27.9,10.45a1.33,1.33,0,0,1-.9.32,1.28,1.28,0,0,1-.85-.33,1.1,1.1,0,0,1-.34-.8,1,1,0,0,1,.34-.77,1.21,1.21,0,0,1,.88-.31,1.17,1.17,0,0,1,.87.32,1.11,1.11,0,0,1,0,1.58l0,0Zm6.93-4.83a2.24,2.24,0,0,0-1.45-.5,1.86,1.86,0,0,0-1.42.54,2.07,2.07,0,0,0-.52,1.49,2,2,0,0,0,.5,1.45,1.84,1.84,0,0,0,1.37.53,2.73,2.73,0,0,0,1.52-.5v1.73a4.05,4.05,0,0,1-2,.42,3.41,3.41,0,0,1-2.51-1,3.48,3.48,0,0,1-1-2.51,3.54,3.54,0,0,1,3.24-3.82,2.44,2.44,0,0,1,.54,0,3.28,3.28,0,0,1,1.72.33Zm7.27,4.14a3.78,3.78,0,0,1-5.34-5.35,3.67,3.67,0,0,1,2.7-1,3.32,3.32,0,0,1,3.59,3,4.17,4.17,0,0,1,0,.5A3.75,3.75,0,0,1,482.25,1048.81Z"/><path class="cls-17" d="M467.18,1047.57a1.23,1.23,0,0,0-.88.35,1,1,0,0,0-.35.8,1.1,1.1,0,0,0,.34.8,1.28,1.28,0,0,0,.85.33,1.33,1.33,0,0,0,.9-.32,1.12,1.12,0,0,0,0-1.59l0,0A1.17,1.17,0,0,0,467.18,1047.57Z"/><path class="cls-17" d="M470.5,1043.54a3.78,3.78,0,0,0-1,2.8,3.48,3.48,0,0,0,1,2.51,3.41,3.41,0,0,0,2.51,1,4.05,4.05,0,0,0,2-.42v-1.76a2.73,2.73,0,0,1-1.52.5,1.84,1.84,0,0,1-1.37-.53,2,2,0,0,1-.5-1.45,2.07,2.07,0,0,1,.52-1.49,1.86,1.86,0,0,1,1.42-.54,2.24,2.24,0,0,1,1.45.5v-1.81a3.28,3.28,0,0,0-1.72-.33A3.7,3.7,0,0,0,470.5,1043.54Z"/><path class="cls-17" d="M479.64,1042.52a3.45,3.45,0,0,0-3.7,3.7,3.78,3.78,0,0,0,6.34,2.65,3.76,3.76,0,0,0,1-2.74,3.33,3.33,0,0,0-3.09-3.56,2.8,2.8,0,0,0-.5,0Zm0,5.65c-1,0-1.57-.67-1.57-2a2.41,2.41,0,0,1,.41-1.48,1.35,1.35,0,0,1,1.14-.52c1,0,1.51.65,1.51,1.95s-.5,2-1.51,2.05Z"/><path class="cls-17" d="M486.66,1045.78a2,2,0,0,1,.32-1.18,1,1,0,0,1,.85-.43c.71,0,1.06.49,1.06,1.47v1.76a11,11,0,0,1,2.08-.61v-1a1.94,1.94,0,0,1,.32-1.13,1,1,0,0,1,.84-.46c.72,0,1.08.5,1.08,1.51v.89a11,11,0,0,1,2.07.2v-1.48c0-1.87-.73-2.8-2.2-2.8a2.47,2.47,0,0,0-2.28,1.3,1.92,1.92,0,0,0-2-1.3,2.32,2.32,0,0,0-1.27.35,2.53,2.53,0,0,0-.9.91h0v-1.09h-2.05v7h.75a11.33,11.33,0,0,1,1.33-1.07Z"/><path class="cls-26" d="M496.18,1036.75H465.62a4.88,4.88,0,0,0-4.89,4.89v8.54a4.89,4.89,0,0,0,4.89,4.89H482a11.72,11.72,0,0,1,.91-2.3h-17a3,3,0,0,1-3-3h0V1042a3,3,0,0,1,3-3h30.05a3,3,0,0,1,3,3V1048a11,11,0,0,1,2.18,1.6v-8a4.9,4.9,0,0,0-4.89-4.9Z"/><path class="cls-14" d="M765,1021.92a23.68,23.68,0,0,0-2.64,47.2l-2.87-3.08,1.27,1.37,5-4.73-18.46-19.2-1.41,1.35v-7.58l34.76-.22,3.21.56,4.17,2.55A23.67,23.67,0,0,0,765,1021.92Z"/><rect class="cls-14" x="745.46" y="1036.6" width="38.76" height="9.44"/><path class="cls-24" d="M764.39,1046.64l14.48,4.75,6.3,6.67a23.6,23.6,0,0,0,2.91-17.92l-4.17-2.55-3.21-.56-34.76.22v14.15l16.46,17.72q1.32.14,2.64.15a23.8,23.8,0,0,0,8.19-1.46l-6.07-6.53Z"/><path class="cls-5" d="M745.91,1051.35v-14.13h4.89q7.29,0,7.29,6.89a7.1,7.1,0,0,1-2,5.27,7.23,7.23,0,0,1-5.3,2Zm3.09-11.54v9h1.52a4.09,4.09,0,0,0,3.15-1.24,4.81,4.81,0,0,0,1.13-3.42,4.32,4.32,0,0,0-1.13-3.18,4.22,4.22,0,0,0-3.17-1.16Z"/><path class="cls-5" d="M772.64,1051.35h-3.11l-5.64-8.88q-.37-.57-.69-1.17h0a21.65,21.65,0,0,1,.08,2.29v7.77h-2.95v-14.14h3.32l5.43,8.6c.25.38.48.77.69,1.15h0a18.09,18.09,0,0,1-.08-1.94v-7.81h2.91Z"/><path class="cls-5" d="M775.14,1050.81v-3.15a6,6,0,0,0,1.8,1.08,5.7,5.7,0,0,0,2,.36,4.71,4.71,0,0,0,1-.11,2.34,2.34,0,0,0,.73-.3,1.32,1.32,0,0,0,.43-.45,1.07,1.07,0,0,0,.14-.57,1.18,1.18,0,0,0-.24-.75,2.36,2.36,0,0,0-.62-.6,5.41,5.41,0,0,0-.94-.53l-1.17-.52a6.11,6.11,0,0,1-2.39-1.69,3.81,3.81,0,0,1-.79-2.4,3.9,3.9,0,0,1,.43-1.9,3.6,3.6,0,0,1,1.17-1.31,4.94,4.94,0,0,1,1.71-.75,8,8,0,0,1,2.06-.24,10.79,10.79,0,0,1,1.89.13,6.7,6.7,0,0,1,1.52.41v3a3.48,3.48,0,0,0-.75-.43,4.57,4.57,0,0,0-.83-.31,6.11,6.11,0,0,0-.85-.18,5.42,5.42,0,0,0-.81-.06,3.78,3.78,0,0,0-1,.1,2.28,2.28,0,0,0-.73.29,1.41,1.41,0,0,0-.46.45,1.09,1.09,0,0,0-.16.59,1.24,1.24,0,0,0,.18.64,2.38,2.38,0,0,0,.52.53,6.71,6.71,0,0,0,.81.49c.32.16.68.32,1.08.5a10.17,10.17,0,0,1,1.47.75,4.87,4.87,0,0,1,1.12.9,3.35,3.35,0,0,1,.77,1.19,4,4,0,0,1,.25,1.5,4.08,4.08,0,0,1-.43,2,3.59,3.59,0,0,1-1.18,1.3,5.06,5.06,0,0,1-1.73.71,10.37,10.37,0,0,1-2.09.22,11.92,11.92,0,0,1-2.14-.2A6.58,6.58,0,0,1,775.14,1050.81Z"/><g class="cls-40"><polygon class="cls-37" points="786.55 1070.79 789.82 1067.51 777.31 1053.93 773.92 1057.04 786.55 1070.79"/><polygon class="cls-17" points="773.92 1057.04 777.31 1053.93 777.24 1053.86 772.25 1052.26 770.77 1053.6 773.92 1057.04"/><polygon class="cls-14" points="786.55 1070.79 773.92 1057.04 770.51 1060.14 783.25 1074.1 786.55 1070.79"/><polygon class="cls-24" points="768.41 1051.04 769.3 1054.92 770.77 1053.6 772.25 1052.26 768.41 1051.04"/><polygon class="cls-17" points="770.77 1053.6 769.3 1054.92 770.49 1060.12 770.51 1060.14 773.92 1057.04 770.77 1053.6"/></g><path class="cls-17" d="M772.21,1207.17a7.7,7.7,0,0,0-8.53,0l-19.48,15-.4.31v28.06a4,4,0,0,0,.4,1,2.56,2.56,0,0,0,2.28,1.35h4.74L768,1240.34c-7.06-5.53-19.09-14.86-19.36-15.09l16.82-13.6a4.06,4.06,0,0,1,5.4,0l17.35,13.52,3.6-2.7h0Z"/><path class="cls-5" d="M770.8,1211.65a4.06,4.06,0,0,0-5.4,0l-16.79,13.6c.27.23,12.3,9.59,19.36,15.09l20.21-15.17Z"/><path class="cls-15" d="M791.8,1235.14v.13h0v-12.82l-3.6,2.7L768,1240.34l-16.75,12.57h38.37a2,2,0,0,0,1.16-.4l.09-.07h0l.11-.1v0l.09-.1a1.78,1.78,0,0,0,.25-.36l.07-.12.06-.14a2.89,2.89,0,0,0,.28-.76h0v-.21a5.17,5.17,0,0,0,.1-.79Z"/><polygon class="cls-35" points="765.42 1216.88 768.39 1213 771.37 1216.87 765.42 1216.88"/><rect class="cls-35" x="766.74" y="1216.66" width="3.3" height="5.7"/><rect class="cls-35" x="766.74" y="1219.51" width="3.3" height="16.02"/><polygon class="cls-35" points="774.4 1219.67 778.2 1219.55 777.33 1223.25 774.4 1219.67"/><rect class="cls-35" x="772.07" y="1221.47" width="4.43" height="2.57" transform="translate(-599.04 766) rotate(-39.26)"/><rect class="cls-35" x="766.39" y="1224.29" width="8.89" height="2.57" transform="translate(-601.6 764.45) rotate(-39.26)"/><polygon class="cls-35" points="759.02 1222.7 758.09 1219.01 761.89 1219.07 759.02 1222.7"/><rect class="cls-35" x="760.78" y="1219.94" width="2.57" height="4.43" transform="translate(-668.97 1059.24) rotate(-51.56)"/><rect class="cls-35" x="764.25" y="1220.49" width="2.57" height="8.89" transform="translate(-669.83 1063.01) rotate(-51.56)"/><circle class="cls-28" cx="767.8" cy="1368.35" r="24"/><path class="cls-17" d="M757.48,1379.47a.9.9,0,0,1-1.27,0h0l-.18-.18a.91.91,0,0,1,0-1.28h0L768.14,1366a10.19,10.19,0,0,0,1.17,1.74Z"/><path class="cls-16" d="M769.85,1368.28l-.05-.08-.47-.52-11.85,11.79a.9.9,0,0,1-1.27,0h0l-.18-.18a.91.91,0,0,1,0-1.28h0L768.14,1366a9.56,9.56,0,0,1-.75-1.92l-13.93,13.88.09,4.82a.91.91,0,0,0,.87.87c.87.1,5.93.07,5.93.07v-3.29h3.28l.17-3.3H767v-3.31h4.38l.34-.36,2.47-2.63A9.66,9.66,0,0,1,769.85,1368.28Z"/><path class="cls-25" d="M769.31,1367.7a9.63,9.63,0,0,1,14.1-13.08l-2,2a2.56,2.56,0,1,0-3.61,3.62l-6.41,6.39-1.59,1.58Z"/><path class="cls-35" d="M783.49,1354.68l-.08-.08-2,2a2.56,2.56,0,1,1-3.61,3.63l-6.41,6.39-1.59,1.58.08.08a9.63,9.63,0,1,0,13.64-13.6h0Z"/><path class="cls-5" d="M772,1363.35a3.14,3.14,0,0,1-1.4-.86,2.32,2.32,0,0,1-.78-1.6,2.25,2.25,0,0,1,.75-1.61,2.29,2.29,0,0,1,3.43,0,3.31,3.31,0,0,1,.73,1l-.68.68a2.24,2.24,0,0,0-.66-1.09,1.29,1.29,0,0,0-1-.42,1.81,1.81,0,0,0-1.57,1.53,1.22,1.22,0,0,0,.39.93,1.43,1.43,0,0,0,.47.33l.63-.63-.62-.62.58-.58,1.32,1.32Z"/><path class="cls-5" d="M774.17,1363.77l-1.1,1.1-.7-.7,3.2-3.2,1.09,1.09c.76.78.81,1.52.14,2.21a1.41,1.41,0,0,1-1.12.44,1.9,1.9,0,0,1-1.2-.6Zm1.55-1.55-1,1,.27.27a.68.68,0,0,0,.94.16.63.63,0,0,0,.12-.11c.33-.33.31-.68-.07-1Z"/><path class="cls-5" d="M777.8,1369.21a3.14,3.14,0,0,1-1.4-.86,2.33,2.33,0,0,1-.75-1.61,2.25,2.25,0,0,1,.75-1.61,2.29,2.29,0,0,1,3.43,0,3.31,3.31,0,0,1,.73,1l-.68.68a2.24,2.24,0,0,0-.66-1.09,1.29,1.29,0,0,0-1-.42,1.8,1.8,0,0,0-1.57,1.51,1.22,1.22,0,0,0,.39.93,1.43,1.43,0,0,0,.47.33l.63-.63-.62-.62.58-.58,1.32,1.32Z"/><polygon class="cls-2" points="459.25 1391.75 475.26 1391.75 475.32 1391.71 459.25 1391.75"/><path class="cls-17" d="M480.17,1346.23a7.65,7.65,0,0,0-8.48,0l-19.36,14.88-.39.3v27.91a3.59,3.59,0,0,0,.39,1,2.57,2.57,0,0,0,2.27,1.36h4.71L476,1379.2c-7-5.46-19-14.77-19.25-15l16.73-13.51a4,4,0,0,1,5.37,0l17.24,13.44,3.58-2.69h0Z"/><path class="cls-5" d="M478.8,1350.69a4,4,0,0,0-5.37,0l-16.72,13.52c.27.23,12.23,9.54,19.25,15l20.09-15.08Z"/><path class="cls-15" d="M475.33,1391.7h0Z"/><path class="cls-15" d="M499.63,1361.44l-3.58,2.69L476,1379.2l-16.65,12.5h38.15a2.13,2.13,0,0,0,1.15-.4l.09-.07h0l.11-.1v-.05l.09-.1a1.41,1.41,0,0,0,.24-.36l.07-.12.06-.14a3.29,3.29,0,0,0,.21-.76h0v-.21a5,5,0,0,0,0-.77v-27.2Z"/><path class="cls-35" d="M469.8,1365.86h0a1.63,1.63,0,0,1-1.62,1.26,1.75,1.75,0,0,1-1.42-.66,2.86,2.86,0,0,1-.54-1.83,3.88,3.88,0,0,1,.75-2.46,2.25,2.25,0,0,1,1.8-1,1.11,1.11,0,0,1,1.2.77h0l.06-.65h1.44c-.19,1.87-.29,3.1-.29,3.68s.17.89.49.92.62-.23.84-.7a4.2,4.2,0,0,0,.29-1.82,3.34,3.34,0,0,0-3.16-3.51h-.42a4,4,0,0,0-3,1.32,4.58,4.58,0,0,0-1.21,3.21,3.92,3.92,0,0,0,1.07,2.89,4,4,0,0,0,3,1.06,6,6,0,0,0,2.64-.57v1.26a7.08,7.08,0,0,1-2.81.48,5.39,5.39,0,0,1-3.84-1.4,5,5,0,0,1-1.48-3.75,5.62,5.62,0,0,1,1.58-4,6,6,0,0,1,7.8-.37,4.27,4.27,0,0,1,1.42,3.35,4.11,4.11,0,0,1-.87,2.74,2.68,2.68,0,0,1-2.16,1,1.53,1.53,0,0,1-1-.35A1.29,1.29,0,0,1,469.8,1365.86Zm-.85-3.49a1.08,1.08,0,0,0-.94.68,3.26,3.26,0,0,0-.36,1.57,1.76,1.76,0,0,0,.25,1,.75.75,0,0,0,.64.35,1,1,0,0,0,.95-.67,3.79,3.79,0,0,0,.31-1.79,1.29,1.29,0,0,0-.24-.83.75.75,0,0,0-.6-.31Z"/><polygon class="cls-41" points="491.08 1363.98 484.99 1359.32 484.99 1361.39 476.38 1361.39 476.38 1366.58 484.99 1366.58 485 1368.65 491.08 1363.98"/><polygon class="cls-15" points="500.77 1287.61 500.74 1300.43 500.77 1300.4 500.78 1300.28 500.8 1287.58 500.77 1287.61"/><polygon class="cls-2" points="460.16 1317.54 476.26 1317.54 476.31 1317.49 460.16 1317.54"/><path class="cls-17" d="M481.2,1271.76a7.7,7.7,0,0,0-8.53,0l-19.47,15-.4.31v28a3.8,3.8,0,0,0,.4,1,2.56,2.56,0,0,0,2.28,1.35h4.74L477,1304.92c-7.06-5.51-19.08-14.85-19.36-15.08l16.82-13.6a4.06,4.06,0,0,1,5.4,0l17.34,13.52,3.6-2.7h0Z"/><path class="cls-5" d="M479.8,1276.24a4.06,4.06,0,0,0-5.4,0l-16.8,13.6c.27.23,12.3,9.59,19.36,15.08l20.2-15.16Z"/><path class="cls-15" d="M476.32,1317.49h0Z"/><path class="cls-15" d="M500.8,1299.72v.13h0V1287l-3.6,2.7L477,1304.92l-16.74,12.57h38.36a2,2,0,0,0,1.15-.4l.09-.07h0l.11-.1v-.05l.09-.1a1.54,1.54,0,0,0,.25-.36l.07-.12.06-.14a3.16,3.16,0,0,0,.21-.76h0v-.21a4.81,4.81,0,0,0,.19-.77Z"/><ellipse class="cls-16" cx="477.31" cy="1298.3" rx="5.41" ry="1.69"/><path class="cls-41" d="M477.39,1298.28s4.86-4.58,6.31-8.44.12-6,.12-6A7,7,0,0,0,470.4,1286a10,10,0,0,0,1.4,5.37A37.75,37.75,0,0,0,477.39,1298.28Z"/><circle class="cls-5" cx="477.38" cy="1286.85" r="4.93"/><circle class="cls-28" cx="1080.69" cy="1294" r="23.92"/><polygon class="cls-17" points="1080.71 1305.6 1080.71 1302.96 1078.28 1302.96 1080.71 1305.6"/><polygon class="cls-17" points="1083.12 1302.96 1083.12 1302.87 1099.6 1284.02 1080.71 1284.02 1080.71 1302.96 1083.12 1302.96"/><polygon class="cls-15" points="1080.71 1302.96 1080.71 1284.02 1061.82 1284.02 1078.12 1302.77 1078.28 1302.96 1080.71 1302.96"/><polygon class="cls-16" points="1080.71 1302.96 1080.71 1305.6 1083.12 1308.22 1083.12 1302.96 1080.71 1302.96"/><polygon class="cls-42" points="1078.12 1302.77 1078.12 1302.96 1078.28 1302.96 1078.12 1302.77"/><polygon class="cls-17" points="1080.71 1312.55 1083.12 1314.52 1083.12 1308.22 1080.71 1305.6 1080.71 1312.55"/><polygon class="cls-15" points="1078.28 1302.96 1078.12 1302.96 1078.21 1310.51 1080.71 1312.55 1080.71 1305.6 1078.28 1302.96"/><polygon class="cls-2" points="1072.62 1229.41 1088.72 1229.41 1088.77 1229.38 1072.62 1229.41"/><path class="cls-15" d="M1088.77,1229.4h0Z"/><polygon class="cls-15" points="1106.77 1223 1106.74 1235.82 1106.77 1235.8 1106.78 1235.67 1106.8 1222.98 1106.77 1223"/><path class="cls-17" d="M1085.09,1207.18a7.7,7.7,0,0,0-8.53,0l-19.47,15-.4.31v28a3.8,3.8,0,0,0,.4,1,2.56,2.56,0,0,0,2.28,1.35h4.74l16.74-12.52c-7.06-5.49-19.08-14.85-19.36-15.08l16.82-13.6a4.06,4.06,0,0,1,5.4,0l17.34,13.52,3.64-2.7h0Z"/><path class="cls-5" d="M1083.69,1211.65a4.06,4.06,0,0,0-5.4,0l-16.8,13.6c.27.23,12.3,9.59,19.36,15.08l20.2-15.16Z"/><path class="cls-15" d="M1104.69,1235.14v.13h0v-12.8l-3.6,2.7-20.24,15.16-16.74,12.57h38.36a2,2,0,0,0,1.15-.4l.07,0h0l.11-.1v0l.09-.1a1.78,1.78,0,0,0,.25-.36l.07-.12.06-.14a3.29,3.29,0,0,0,.21-.76h0v-.21a6.34,6.34,0,0,0,.21-.86Z"/><path class="cls-41" d="M1074.83,1228h-1.6l-.47-1.5h-2.33l-.46,1.5h-1.6l2.38-6.76h1.75Zm-2.41-2.67-.73-2.28a4.1,4.1,0,0,1-.11-.61h0a2.36,2.36,0,0,1-.11.59l-.71,2.29Z"/><path class="cls-41" d="M1080.87,1225.07c0,2-.91,3-2.75,3s-2.72-1-2.67-3v-3.9h1.48v3.92c0,1.1.42,1.64,1.24,1.64s1.24-.52,1.22-1.58v-4h1.48Z"/><path class="cls-41" d="M1086.89,1222.47H1085V1228h-1.48v-5.52h-1.86v-1.24h5.2Z"/><path class="cls-41" d="M1090.12,1228.11a3,3,0,0,1-2.29-.95,3.51,3.51,0,0,1-.89-2.46,3.73,3.73,0,0,1,.9-2.59,3.11,3.11,0,0,1,2.38-1,3,3,0,0,1,2.27,1,3.53,3.53,0,0,1,.87,2.5,3.62,3.62,0,0,1-.9,2.57A3,3,0,0,1,1090.12,1228.11Zm.06-5.68a1.49,1.49,0,0,0-1.23.6,2.66,2.66,0,0,0-.46,1.59,2.56,2.56,0,0,0,.46,1.59,1.55,1.55,0,0,0,2.18.23,1,1,0,0,0,.23-.23,2.4,2.4,0,0,0,.45-1.58,2.65,2.65,0,0,0-.43-1.64,1.41,1.41,0,0,0-1.19-.56Z"/><polygon class="cls-2" points="1064.79 1390.84 1080.18 1390.84 1080.23 1390.8 1064.79 1390.84"/><path class="cls-17" d="M1084.9,1347.09a7.37,7.37,0,0,0-8.15,0l-18.61,14.3-.38.29v26.82a3.19,3.19,0,0,0,.38,1,2.43,2.43,0,0,0,2.18,1.29h4.53l16-12c-6.75-5.26-18.24-14.21-18.5-14.43l16.07-13a3.9,3.9,0,0,1,5.16,0l16.57,12.93,3.44-2.58h0Z"/><path class="cls-5" d="M1083.58,1351.37a3.9,3.9,0,0,0-5.16,0l-16.07,13c.26.22,11.75,9.17,18.5,14.41l19.3-14.49Z"/><path class="cls-15" d="M1080.24,1390.83h0Z"/><polygon class="cls-15" points="1103.59 1361.71 1103.57 1373.96 1103.6 1373.94 1103.61 1373.82 1103.63 1361.68 1103.59 1361.71"/><path class="cls-15" d="M1103.61,1373.83v.12h0V1361.7l-3.44,2.58-19.32,14.5-16,12h36.66a1.91,1.91,0,0,0,1.1-.39l.09-.06h0l.1-.09h0l.09-.1a1.72,1.72,0,0,0,.24-.34l.06-.12.06-.13a3.58,3.58,0,0,0,.2-.73h0v-.2c0-.24,0-.49,0-.74v-14.05Z"/><polygon class="cls-27" points="1078.15 1371.14 1073.77 1366.76 1073.77 1360.57 1078.15 1356.17 1084.35 1356.17 1088.73 1360.57 1088.73 1366.76 1084.35 1371.14 1078.15 1371.14"/><path class="cls-5" d="M1081.26,1369.69a1.4,1.4,0,0,1-1-.4,1.25,1.25,0,0,1-.41-1,1.22,1.22,0,0,1,.41-1,1.51,1.51,0,0,1,1-.37,1.47,1.47,0,0,1,1,.38,1.3,1.3,0,0,1,.4,1,1.28,1.28,0,0,1-.4,1A1.39,1.39,0,0,1,1081.26,1369.69Zm1.29-11.86-.31,8h-2l-.29-8Z"/><path class="cls-28" d="M769.12,1312.29v2.09l-2.4-2-2.49-2-.09-7.51v-.18L748,1284.07H785.5l-9.61,11a11.49,11.49,0,0,1,13.48,6.18,23.77,23.77,0,1,0-15.4,15.4A11.67,11.67,0,0,1,769.12,1312.29Z"/><polygon class="cls-17" points="766.72 1305.52 766.72 1302.89 764.31 1302.89 766.72 1305.52"/><path class="cls-17" d="M766.72,1284.07v18.82h1.14a11.58,11.58,0,0,1,8-7.83l9.61-11Z"/><polygon class="cls-15" points="766.72 1302.89 766.72 1284.07 747.95 1284.07 764.14 1302.71 764.31 1302.89 766.72 1302.89"/><path class="cls-16" d="M767.38,1306.23h0a12,12,0,0,1,.49-3.31h-1.15v2.62Z"/><polygon class="cls-42" points="764.14 1302.71 764.15 1302.89 764.31 1302.89 764.14 1302.71"/><path class="cls-17" d="M766.72,1305.52v6.91l2.4,2v-2.14a11.59,11.59,0,0,1-1.74-6.06Z"/><polygon class="cls-15" points="764.31 1302.89 764.15 1302.89 764.23 1310.4 766.72 1312.43 766.72 1305.52 764.31 1302.89"/><path class="cls-22" d="M771.8,1299.41l4.39-2.64A9.92,9.92,0,0,0,771.8,1299.41Z"/><path class="cls-22" d="M771,1303.38l.16.31.16.22.16.38.16.25.13.53h.38s.28.16,0,.72a2.86,2.86,0,0,0,.13,2.29c.38.75.78.75.78.75a3,3,0,0,0,.38.85c.25.31-.19,1.1-.19,1.1l.27.66s0,1.44.52,1.44c0,0-.38,1,.94,1.16,0,0,.56.09.19-.56l.13-.44v-.41l.81-1.32a.86.86,0,0,1,.56-.66l.47-.13s.6.13.72-1a1.35,1.35,0,0,0,1-1.1,1.55,1.55,0,0,0-.56-1.32h-.56l-.56-.53h-.53a2.73,2.73,0,0,0-.53-1.19l-.38-.06s-.09-.31-.88-.25l-.1-.3-1.57-.56-.6.63-.69-.47.06-.47-.53-.38.22-.31.11-.44h-.22s-1-.53,0-1.66l1.06-.09.09.47.31.6.6-.66-.06-.44s.72-.28.75-.81c0,0,.13.13,1.28-.56h.85l-.06-.5H777l.44-.34-.34-.6.13-.31h-.36l-.38-.38-.38.5h-.28s-.72,1.19-.88-.06l.88-.81h.28l.53-.16s.5.81.75,0c0,0,.41,0,.06-.28v-.24a8.77,8.77,0,0,0-1.33.29l-4.35,2.68a9.62,9.62,0,0,0-1.34,1.76l-.19.7a1.19,1.19,0,0,0,.76,1.5Z"/><path class="cls-26" d="M788.33,1307.83v.56l-.19.31v.34l-.38.88-.68.88-.23.44-.16.22a1.31,1.31,0,0,1-.78,1c-.72.34-.85-.25-.85-.25l.16-.47c-.69-.56.22-1.35.22-1.35l.13-.44a3.07,3.07,0,0,0-.09-1.28l.38-.56v-.88l-.35-.46c.41-1-.5-.81-.5-.81l-.36-.47-.27.31-1,.16a1.3,1.3,0,0,1-.85-.47c-.44-.47-.31-1-.23-.94s.2-.66.2-.66l-.18-.12c-.09-1.57.66-1.57.66-1.57a.67.67,0,0,1,.5-.75c1.85-.6,2.51.32,2.51.32a.77.77,0,0,1,.18-.18.47.47,0,0,1,.6.05c.47.38.28-.16.28-.16l-.25-.5h-.53s-.13-.1-.13-.19-.28.12-.36.18h0v-.2a.33.33,0,0,0-.18-.17.14.14,0,0,0-.13.1c-.63.28-.47-.06-.47-.06.38-.72-.56-.28-.56-.28-.47-.25-.44.28-.44.28s-1.13.81-1.35-.16.69-.34.69-.34l.28-.5H784v-.5l-.38-.28v-.16l-.64-.44h-.18l-.22-.63-.25-.16v-.25h.8a9.88,9.88,0,0,0-4.15-.91h-.47l.65.18h.41l.13.22h.47l-.38.5h-.29c-.13.47-.34.28-.34.28-1.13,1-.81-.6-.81-.6l-.28-.25.39-.33a5.07,5.07,0,0,0-.94.09v.24c.34.31-.06.28-.06.28-.25.81-.75,0-.75,0l-.53.16h-.28l-.88.81c.16,1.25.88.06.88.06h.28l.38-.5.38.38h.31l-.13.31.34.6-.44.34h-.63l.06.5h-.85c-1.16.69-1.28.56-1.28.56,0,.53-.75.81-.75.81l.06.44-.6.66-.31-.6-.09-.47-1.06.09c-1,1.13,0,1.66,0,1.66h.23l-.09.44-.22.31.53.38-.06.47.69.47.6-.63,1.55.6.06.34c.78-.06.88.25.88.25l.38.06a2.73,2.73,0,0,1,.53,1.19h.53l.56.53h.56a1.54,1.54,0,0,1,.5,1.28,1.35,1.35,0,0,1-1,1.1c-.13,1.13-.72,1-.72,1l-.47.13a.86.86,0,0,0-.56.66l-.81,1.32v.41l-.13.44c.38.66-.19.56-.19.56-1.32-.13-.94-1.16-.94-1.16-.47,0-.52-1.44-.52-1.44l-.19-.67s.44-.78.19-1.1a3,3,0,0,1-.38-.85s-.41,0-.78-.75a2.84,2.84,0,0,1-.13-2.3c.28-.56,0-.72,0-.72h-.37l-.13-.53-.16-.25-.16-.38-.16-.22-.16-.31a1.2,1.2,0,0,1-.77-1.5h0l.19-.7a9.91,9.91,0,0,0,3.47,13.56,9.8,9.8,0,0,0,1.53.74l.13-.22.38.16a.72.72,0,0,1,.6-.44s.09.25.69.44a.83.83,0,0,0,.88-.13l.75.13a.48.48,0,0,1,.65-.22l0,0a1.07,1.07,0,0,0,.69.19l.38-.25H781l.63-.22s.47-.31.78.44v.1a9.91,9.91,0,0,0,6.37-8.16Z"/><path class="cls-22" d="M783.8,1297.59a5.58,5.58,0,0,0-.69-.35h-.8v.25l.25.16.22.63H783l.64.44v.16l.38.28v.5h-.37l-.28.5s-.91-.63-.69.34,1.35.16,1.35.16,0-.53.44-.28c0,0,.94-.44.56.28,0,0-.16.34.47.06a.1.1,0,0,1,.13-.1.34.34,0,0,1,.22.15v.19h0c.08-.06.36-.26.36-.18s.13.19.13.19h.51l.25.53s.19.53-.28.16a.47.47,0,0,0-.6-.05.77.77,0,0,0-.18.18s-.66-.92-2.51-.32a.67.67,0,0,0-.5.75s-.75,0-.66,1.57l.19.13s-.11.75-.2.66-.21.47.23.94a1.3,1.3,0,0,0,.85.47l1-.16.27-.31.36.47s.91-.19.5.81l.34.41v.88l-.38.56a3.07,3.07,0,0,1,.09,1.28l-.13.44s-.91.78-.22,1.35l-.16.47s.13.6.85.25a1.31,1.31,0,0,0,.78-1l.16-.22.23-.44.68-.88.38-.88v-.34l.19-.31v-.56l.48-.51a9.77,9.77,0,0,0,.06-1.08h0A9.87,9.87,0,0,0,783.8,1297.59Z"/><path class="cls-22" d="M781.6,1315l-.63.22h-.38l-.38.25a1.07,1.07,0,0,1-.69-.19.47.47,0,0,0-.66.14l0,0-.75-.13a.83.83,0,0,1-.88.13c-.6-.19-.69-.44-.69-.44a.72.72,0,0,0-.6.44l-.38-.16-.13.22a9.93,9.93,0,0,0,7,0v-.1C782.07,1314.66,781.6,1315,781.6,1315Z"/><path class="cls-22" d="M778.34,1296.93s-.31,1.57.81.6c0,0,.22.19.34-.28h.31l.38-.5h-.47l-.13-.22h-.41l-.65-.18h-.06l-.39.33Z"/><polygon class="cls-2" points="461.19 1252.89 477.27 1252.89 477.32 1252.85 461.19 1252.89"/><path class="cls-17" d="M482.2,1207.19a7.66,7.66,0,0,0-8.51,0l-19.45,14.94-.4.3v28a4,4,0,0,0,.4,1,2.57,2.57,0,0,0,2.28,1.41h4.73L478,1240.3c-7-5.46-19.06-14.84-19.33-15.06l16.8-13.58a4,4,0,0,1,5.39,0l17.32,13.5,3.6-2.7h0Z"/><path class="cls-5" d="M480.8,1211.66a4,4,0,0,0-5.39,0l-16.77,13.58c.27.23,12.28,9.58,19.33,15.06l20.18-15.14Z"/><path class="cls-15" d="M477.33,1252.84h0Z"/><path class="cls-15" d="M501.74,1222.46l-3.6,2.7L478,1240.3l-16.72,12.54h38.3a2.13,2.13,0,0,0,1.15-.4l.09-.07h0l.11-.1v0l.09-.1a1.78,1.78,0,0,0,.25-.36l.07-.12.06-.14a3.29,3.29,0,0,0,.21-.76h0v-.21a5.08,5.08,0,0,0,0-.78v-27.31Z"/><polygon class="cls-35" points="490.17 1225.45 481.39 1218.72 481.39 1221.71 468.97 1221.71 468.97 1229.19 481.4 1229.19 481.4 1232.18 490.17 1225.45"/><polygon class="cls-2" points="460.14 1461.88 476.25 1461.88 476.3 1461.84 460.14 1461.88"/><path class="cls-17" d="M481.19,1416.08a7.7,7.7,0,0,0-8.53,0l-19.49,15-.37.32v28.07a4,4,0,0,0,.4,1,2.58,2.58,0,0,0,2.28,1.35h4.74L477,1449.26c-7.07-5.49-19.1-14.89-19.38-15.09l16.83-13.61a4.06,4.06,0,0,1,5.4,0l17.36,13.53,3.63-2.72h0Z"/><path class="cls-5" d="M479.8,1420.56a4.06,4.06,0,0,0-5.4,0l-16.82,13.61c.27.23,12.31,9.6,19.37,15.09l20.22-15.17Z"/><path class="cls-15" d="M476.32,1461.84h0Z"/><path class="cls-15" d="M500.8,1431.37l-3.6,2.7L477,1449.26l-16.76,12.57h38.39a2.19,2.19,0,0,0,1.16-.4l.05-.06h0l.11-.1v0l.09-.1a1.78,1.78,0,0,0,.25-.36l.07-.12.06-.14a3.44,3.44,0,0,0,.21-.76h0v-.21a5.08,5.08,0,0,0,0-.78Z"/><path class="cls-22" d="M473.88,1427.16a8,8,0,1,0,10.8,10.55l-7.3-3.34Z"/><path class="cls-14" d="M477.38,1426.37h-.18l.18,8,7.3,3.33a8,8,0,0,0-7.3-11.33Z"/><path class="cls-25" d="M477.16,1426.37a8,8,0,0,0-3.28.8l3.5,7.2Z"/><path class="cls-25" d="M477.38,1434.37l-.18-8h0Z"/><path class="cls-15" d="M198.65,1456.52h-6.31v-6.63h5.31a11.57,11.57,0,0,1,.8-3h-6.11v-6.65H199v5.47a11.4,11.4,0,0,1,2.15-2.82v-2.65h4.4a11.64,11.64,0,0,1,7.51,0h3.51v1.89a11.84,11.84,0,0,1,3.11,3.67v-18.68h-48v28.43a4.78,4.78,0,0,0,4.77,4.77h25.17A11.85,11.85,0,0,1,198.65,1456.52Zm11.26-25.94h6.63v6.63h-6.63Zm-8.79,0h6.63v6.63h-6.63Zm-8.79,0H199v6.63h-6.62Zm-10.94,25.94h-6.63v-6.63h6.63Zm0-9.66h-6.63v-6.62h6.63Zm0-9.66h-6.63v-6.62h6.63Zm8.79,19.31h-6.63v-6.62h6.63Zm0-9.66h-6.63v-6.61h6.63Zm0-9.66h-6.63v-6.61h6.63Z"/><path class="cls-26" d="M219.65,1420.32a4.78,4.78,0,0,0-4.77-4.77H176.42a4.78,4.78,0,0,0-4.77,4.77v6.8h48Z"/><rect class="cls-17" x="174.76" y="1430.58" width="6.63" height="6.63"/><rect class="cls-17" x="183.55" y="1430.58" width="6.63" height="6.63"/><rect class="cls-17" x="192.34" y="1430.58" width="6.63" height="6.63"/><rect class="cls-17" x="201.12" y="1430.58" width="6.63" height="6.63"/><rect class="cls-27" x="209.91" y="1430.58" width="6.63" height="6.63"/><rect class="cls-17" x="174.76" y="1440.24" width="6.63" height="6.63"/><rect class="cls-17" x="183.55" y="1440.24" width="6.63" height="6.63"/><path class="cls-17" d="M192.34,1440.24v6.65h6.07a9.53,9.53,0,0,1,.56-1.16v-5.49Z"/><path class="cls-17" d="M201.12,1442.89a11.59,11.59,0,0,1,4.4-2.67h-4.4Z"/><path class="cls-27" d="M213,1440.24a11.59,11.59,0,0,1,3.51,1.89v-1.89Z"/><rect class="cls-17" x="174.76" y="1449.89" width="6.63" height="6.63"/><rect class="cls-17" x="183.55" y="1449.89" width="6.63" height="6.63"/><path class="cls-17" d="M192.34,1456.52h6.31a11.68,11.68,0,0,1-1.18-5.12,12.7,12.7,0,0,1,.18-1.51h-5.31Z"/><rect class="cls-5" x="176.19" y="1419.73" width="3.77" height="3.77" rx="1.78"/><rect class="cls-5" x="211.34" y="1419.73" width="3.77" height="3.77" rx="1.78"/><circle class="cls-26" cx="209.41" cy="1451.29" r="9.83"/><path class="cls-15" d="M210.52,1453.31h0a2.15,2.15,0,0,1-2.13,1.65,2.31,2.31,0,0,1-1.86-.86,3.67,3.67,0,0,1-.71-2.39,5,5,0,0,1,1-3.22,2.92,2.92,0,0,1,2.36-1.24,1.45,1.45,0,0,1,1.57,1h0l.08-.86h1.82c-.26,2.45-.38,4-.38,4.81s.21,1.15.64,1.21.81-.31,1.11-.92a5.76,5.76,0,0,0,.43-2.39,4.37,4.37,0,0,0-4.11-4.62,4.28,4.28,0,0,0-.62,0,5.16,5.16,0,0,0-4,1.72,6,6,0,0,0-1.59,4.21,5.08,5.08,0,0,0,1.4,3.79,5.29,5.29,0,0,0,3.87,1.38,8.12,8.12,0,0,0,3.5-.7v1.65a9.27,9.27,0,0,1-3.68.63,7,7,0,0,1-5-1.83,6.42,6.42,0,0,1-1.94-4.91,7.29,7.29,0,0,1,2.07-5.29,7,7,0,0,1,5.3-2.17,7,7,0,0,1,4.88,1.66,5.62,5.62,0,0,1,1.86,4.39,5.42,5.42,0,0,1-1.14,3.59,3.55,3.55,0,0,1-2.82,1.35,2,2,0,0,1-1.35-.46A1.62,1.62,0,0,1,210.52,1453.31Zm-1.11-4.56a1.4,1.4,0,0,0-1.23.89,4.17,4.17,0,0,0-.47,2A2.18,2.18,0,0,0,208,1453a1,1,0,0,0,.83.46,1.39,1.39,0,0,0,1.24-.87,5.19,5.19,0,0,0,.45-2.33,1.76,1.76,0,0,0-.31-1.09,1,1,0,0,0-.84-.4Z"/><polygon class="cls-15" points="225.69 1361.98 225.67 1374.75 225.7 1374.73 225.71 1374.6 225.73 1361.95 225.69 1361.98"/><polygon class="cls-2" points="179.07 1391.81 195.12 1391.81 195.17 1391.77 179.07 1391.81"/><path class="cls-17" d="M200.05,1346.18a7.65,7.65,0,0,0-8.5,0l-19.42,14.91-.4.3v28a3.43,3.43,0,0,0,.4,1,2.57,2.57,0,0,0,2.28,1.34h4.73l16.68-12.5c-7-5.48-19-14.81-19.3-15l16.77-13.59a4,4,0,0,1,5.38,0L216,1364.12l3.59-2.69h0Z"/><path class="cls-5" d="M198.66,1350.64a4,4,0,0,0-5.38,0l-16.76,13.56c.27.23,12.26,9.56,19.3,15L216,1364.12Z"/><path class="cls-15" d="M195.18,1391.76h0Z"/><path class="cls-15" d="M219.57,1374.05v.13h0V1361.4l-3.61,2.72-20.14,15.11-16.69,12.53h38.24a2.18,2.18,0,0,0,1.15-.4l.09-.07h0l.11-.1v0l.09-.1a1.78,1.78,0,0,0,.25-.36l.07-.12.06-.14a3.44,3.44,0,0,0,.21-.76h0v-.21q0-.39,0-.78v-14.62Z"/><path class="cls-16" d="M196.34,1374l1.64-1.58v-9.29a4.71,4.71,0,0,1-.89.39v8.08a.43.43,0,0,1-.43.43h-.12a.43.43,0,0,1-.43-.43h0v-7.89h-.33v1.11h-2.4v.23l1.48,1.47-1.1,1.11,1.07,1.08-1.08,1.11,1.09,1.1-1.08,1.13s1.68,1.7,2,2A.44.44,0,0,0,196.34,1374Z"/><path class="cls-17" d="M196.12,1371.64a.43.43,0,0,0,.43.43h.11a.43.43,0,0,0,.43-.43h0v-8.08a4.9,4.9,0,0,1-1,.19Z"/><path class="cls-16" d="M195.78,1363.77h-.05a4.57,4.57,0,0,1-2.29-.62l-.06,1.71h2.4Z"/><path class="cls-24" d="M196.66,1362.28h-.12a.42.42,0,0,0-.43.42h1a.43.43,0,0,0-.44-.42Z"/><path class="cls-24" d="M195.77,1354.66h-.05a4.56,4.56,0,1,0,0,9.11h.38a4.55,4.55,0,0,0-.34-9.09Zm0,3.77a1.2,1.2,0,1,1,1.2-1.21,1.2,1.2,0,0,1-1.2,1.21Z"/><polygon class="cls-2" points="179.01 1317.41 195.11 1317.41 195.16 1317.37 179.01 1317.41"/><path class="cls-17" d="M200.05,1271.88a7.73,7.73,0,0,0-8.53,0l-19.47,14.89-.4.3V1315a3.33,3.33,0,0,0,.4,1,2.57,2.57,0,0,0,2.28,1.34h4.74l16.74-12.45c-7.06-5.47-19.08-14.78-19.36-15l16.82-13.52a4.06,4.06,0,0,1,5.4,0L216,1289.79l3.64-2.69h0Z"/><path class="cls-5" d="M198.65,1276.34a4.06,4.06,0,0,0-5.4,0l-16.8,13.52c.27.23,12.3,9.54,19.36,15l20.2-15.08Z"/><path class="cls-15" d="M195.17,1317.37h0Z"/><polygon class="cls-15" points="219.62 1287.1 219.59 1299.85 219.62 1299.83 219.63 1299.7 219.65 1287.07 219.62 1287.1"/><path class="cls-15" d="M219.65,1299.7v.13h0v-12.75l-3.6,2.69-20.24,15.1-16.74,12.5h38.36a2.18,2.18,0,0,0,1.15-.4l.09-.07h0l.11-.1v0l.09-.1a1.78,1.78,0,0,0,.25-.36l.07-.12.06-.14a3.29,3.29,0,0,0,.21-.76h0v-.21c0-.26,0-.51,0-.77V1299.7Z"/><path class="cls-26" d="M197.85,1292.48h-.06a2.5,2.5,0,0,1-2.47,1.91,2.63,2.63,0,0,1-2.16-1,4.24,4.24,0,0,1-.82-2.82,5.78,5.78,0,0,1,1.14-3.72,3.39,3.39,0,0,1,2.74-1.43,1.68,1.68,0,0,1,1.82,1.17h0l.1-1h2.19c-.3,2.83-.44,4.69-.44,5.56s.25,1.35.76,1.42.94-.35,1.28-1.06a6.56,6.56,0,0,0,.51-2.77,5.28,5.28,0,0,0-1.45-3.83,5.35,5.35,0,0,0-4-1.49,6,6,0,0,0-4.62,2,6.84,6.84,0,0,0-1.84,4.86,5.82,5.82,0,0,0,1.63,4.37,6.11,6.11,0,0,0,4.5,1.6,9.2,9.2,0,0,0,4-.86v1.91a10.79,10.79,0,0,1-4.28.73,8.19,8.19,0,0,1-5.84-2.11,7.42,7.42,0,0,1-2.25-5.68,8.44,8.44,0,0,1,2.36-6.08,9.19,9.19,0,0,1,11.86-.59,6.46,6.46,0,0,1,2.14,5.1,6.27,6.27,0,0,1-1.32,4.15,4.11,4.11,0,0,1-3.28,1.56,2.26,2.26,0,0,1-1.57-.53A1.9,1.9,0,0,1,197.85,1292.48Zm-1.29-5.27a1.62,1.62,0,0,0-1.42,1,4.85,4.85,0,0,0-.55,2.36,2.61,2.61,0,0,0,.37,1.49,1.14,1.14,0,0,0,1,.53,1.6,1.6,0,0,0,1.44-1,5.83,5.83,0,0,0,.53-2.7,2,2,0,0,0-.36-1.26,1.19,1.19,0,0,0-1-.43Z"/><rect class="cls-43" x="1585.8" y="1149.23" width="14" height="3.68"/><rect class="cls-43" x="1585.8" y="901.23" width="14" height="3.68"/><rect class="cls-43" x="1585.8" y="698.23" width="14" height="3.68"/><rect class="cls-43" x="1585.8" y="362.23" width="14" height="3.68"/><rect class="cls-13" x="1672.8" y="728.91" width="535" height="40.5" rx="3"/><text class="cls-44" transform="translate(1673.06 325.86)">Current User</text><text class="cls-44" transform="translate(1673.06 714.86)">Theme</text><text class="cls-44" transform="translate(1673.06 406.86)">Primary Domain</text><text class="cls-44" transform="translate(1673.06 479.86)">Shared IP Address</text><text class="cls-18" transform="translate(1673.06 507.86)">12.123.123.15</text><text class="cls-18" transform="translate(1673.06 434.86)">yourdomainhere.com</text><text class="cls-18" transform="translate(1673.06 357.86)">cPanelUser</text><text class="cls-19" transform="translate(2120.06 175.87)">LOGOUT</text><text class="cls-19" transform="translate(1880.06 175.87)">cPanelUser</text><text class="cls-45" transform="translate(1732.06 175.87)">Search (/)</text><text class="cls-18" transform="translate(1689.06 754.86)">paper_lantern</text><text class="cls-46" transform="translate(1673.06 817.86)">Server Information</text><text class="cls-46" transform="translate(1673.06 955.86)">Disk Usage</text><line class="cls-7" x1="1650.3" y1="379.74" x2="2232.3" y2="379.74"/><line class="cls-7" x1="1650.8" y1="451.41" x2="2232.8" y2="451.41"/><line class="cls-7" x1="1650.8" y1="526.41" x2="2232.8" y2="526.41"/><text class="cls-44" transform="translate(1673.06 557.86)">Home Directory</text><text class="cls-18" transform="translate(1673.06 585.86)">home/domain</text><line class="cls-7" x1="1650.8" y1="604.41" x2="2232.8" y2="604.41"/><text class="cls-44" transform="translate(1673.06 635.86)">Last Login IP Address</text><text class="cls-18" transform="translate(1673.06 663.86)">19.185.192.37</text><text class="cls-18" transform="translate(1673.06 984.86)">1.16 GB / ∞</text><text class="cls-47" transform="translate(1673.06 1039.86)">MySQL Disk Usage</text><text class="cls-18" transform="translate(1673.06 1066.86)">0 bytes / ∞</text><text class="cls-46" transform="translate(1673.06 1123.86)">Bandwidth</text><text class="cls-18" transform="translate(1673.06 1151.86)">7 GB / ∞</text><text class="cls-46" transform="translate(1673.06 1208.86)">Addon Domains</text><text class="cls-18" transform="translate(1673.06 1235.86)">0 / 5 (0%)</text><text class="cls-46" transform="translate(1673.06 1313.86)">Subdomains</text><text class="cls-18" transform="translate(1673.06 1342.86)">0 GB / ∞</text><text class="cls-46" transform="translate(1673.06 1393.86)">Email Accounts</text><text class="cls-18" transform="translate(1673.06 1422.86)">0 / ∞</text><line class="cls-7" x1="1650.8" y1="1441.41" x2="2232.8" y2="1441.41"/><text class="cls-46" transform="translate(1673.56 1472.2)">Auto Responders</text><text class="cls-18" transform="translate(1673.56 1501.2)">0 / ∞</text><line class="cls-7" x1="1651.3" y1="1519.74" x2="2233.3" y2="1519.74"/><text class="cls-46" transform="translate(1674.06 1550.53)">Email Filtrs</text><text class="cls-18" transform="translate(1674.06 1579.53)">0 / ∞</text><line class="cls-7" x1="1650.8" y1="686.41" x2="2232.8" y2="686.41"/><line class="cls-7" x1="1650.8" y1="788.41" x2="2232.8" y2="788.41"/><rect class="cls-8" x="33.8" y="246.91" width="9.24" height="9.24"/><rect class="cls-8" x="45.68" y="246.91" width="9.24" height="9.24"/><rect class="cls-8" x="57.56" y="246.91" width="9.24" height="9.24"/><rect class="cls-8" x="33.8" y="258.79" width="9.24" height="9.24"/><rect class="cls-8" x="45.68" y="258.79" width="9.24" height="9.24"/><rect class="cls-8" x="57.56" y="258.79" width="9.24" height="9.24"/><rect class="cls-8" x="33.8" y="270.67" width="9.24" height="9.24"/><rect class="cls-8" x="45.68" y="270.67" width="9.24" height="9.24"/><rect class="cls-8" x="57.56" y="270.67" width="9.24" height="9.24"/><polygon class="cls-2" points="179.22 1252.03 195.32 1252.03 195.37 1252 179.22 1252.03"/><path class="cls-17" d="M200.26,1206.27a7.68,7.68,0,0,0-8.52,0l-19.48,15-.4.3v28a4,4,0,0,0,.4,1,2.56,2.56,0,0,0,2.28,1.35h4.74L196,1239.43c-7.05-5.52-19.08-14.85-19.35-15.08l16.81-13.6a4,4,0,0,1,5.4,0l17.34,13.52,3.6-2.7h0Z"/><path class="cls-5" d="M198.88,1210.75a4,4,0,0,0-5.4,0l-16.81,13.6c.27.23,12.3,9.59,19.35,15.08l20.2-15.16Z"/><path class="cls-15" d="M195.38,1252h0Z"/><path class="cls-15" d="M219.8,1221.57l-3.6,2.7L196,1239.43,179.28,1252h38.35a2.13,2.13,0,0,0,1.15-.4l.09-.07h0l.11-.1v-.05l.09-.1a1.61,1.61,0,0,0,.33-.36l.07-.12.06-.14a3.29,3.29,0,0,0,.21-.76h0v-.21a5,5,0,0,0,.06-.77Z"/><path class="cls-35" d="M202.19,1227.26l-2.8-1.15s-1.44-.48-.17-1.84,1.32-4.08,1.32-4.08c-.33-4.83-4.09-4.48-4.09-4.48-4.17.21-4.09,4.52-4.09,4.52a7.79,7.79,0,0,0,1.57,3.89c1.32,1.4-.7,2-.7,2l-3.09,1.46c-1.82.83-1.73,3.42-1.73,3.42h16.05A3,3,0,0,0,202.19,1227.26Z"/><polyline class="cls-35" points="188.41 1230.67 195.84 1236.57 204.46 1230.67 199.04 1227.5 193.68 1227.96 188.41 1230.67"/><rect class="cls-17" x="171.8" y="1614.98" width="48" height="37.92" rx="1.19"/><rect class="cls-15" x="174.39" y="1623.53" width="42.82" height="27.19" rx="1.25"/><rect class="cls-24" x="174.3" y="1617.98" width="2.88" height="2.88" rx="1.26"/><rect class="cls-24" x="179.44" y="1617.98" width="2.88" height="2.88" rx="1.26"/><rect class="cls-24" x="184.59" y="1617.98" width="2.88" height="2.88" rx="1.26"/><path class="cls-32" d="M203.45,1642.91l-3.65-1.58s-1.89-.63-.22-2.42,1.73-5.35,1.73-5.35c-.43-6.33-5.36-5.87-5.36-5.87-5.46.27-5.36,5.92-5.36,5.92s.32,3.26,2.06,5.1-.92,2.64-.92,2.64l-4.06,2c-2.38,1.08-2.27,4.53-2.27,4.53h21C207.08,1644.61,203.45,1642.91,203.45,1642.91Z"/><path class="cls-28" d="M209.63,1640.19l-2.71-1s-1.95-.86-.11-2.42c0,0,3.14-3.76.43-7.88,0,0-3.08-3.74-6.49-.75,0,0,4.6,4.71-.38,11.91,0,0,4.06,1.18,5.19,2.37,0,0,1.41,2.16,1.84,2.16h5.4S213.42,1641.76,209.63,1640.19Z"/><path class="cls-28" d="M191.55,1640.17c-5-7.2-.38-12-.38-12-3.41-3-6.49.7-6.49.7a6.71,6.71,0,0,0,.43,7.82c1.84,1.57-.11,2.33-.11,2.33l-2.7,1.17c-3.79,1.57-3.14,4.42-3.14,4.42h5.36c.43,0,1.84-2.17,1.84-2.17C187.49,1641.25,191.55,1640.17,191.55,1640.17Z"/><rect class="cls-27" x="454.79" y="1614.91" width="48.01" height="37.93" rx="1.19"/><rect class="cls-15" x="457.38" y="1623.46" width="42.83" height="27.2" rx="1.25"/><rect class="cls-24" x="457.29" y="1617.91" width="2.88" height="2.88" rx="1.26"/><rect class="cls-24" x="462.43" y="1617.91" width="2.88" height="2.88" rx="1.26"/><rect class="cls-24" x="467.58" y="1617.91" width="2.88" height="2.88" rx="1.26"/><polygon class="cls-27" points="474.51 1646.97 468.71 1641.16 468.71 1632.95 474.51 1627.14 482.73 1627.14 488.53 1632.95 488.53 1641.16 482.73 1646.97 474.51 1646.97"/><path class="cls-5" d="M478.63,1644.91a1.86,1.86,0,0,1-1.34-.51,1.66,1.66,0,0,1-.49-1.25,1.63,1.63,0,0,1,.49-1.24,1.89,1.89,0,0,1,1.34-.48,1.86,1.86,0,0,1,1.33.49,1.58,1.58,0,0,1,.52,1.24,1.61,1.61,0,0,1-.52,1.25A1.81,1.81,0,0,1,478.63,1644.91Zm1.67-15.33-.4,10.39h-2.6l-.38-10.39Z"/><rect class="cls-17" x="742.8" y="1618.87" width="48" height="37.92" rx="1.19"/><rect class="cls-15" x="745.39" y="1627.41" width="42.82" height="27.19" rx="1.25"/><rect class="cls-24" x="745.3" y="1621.87" width="2.88" height="2.88" rx="1.26"/><rect class="cls-24" x="750.44" y="1621.87" width="2.88" height="2.88" rx="1.26"/><rect class="cls-24" x="755.59" y="1621.87" width="2.88" height="2.88" rx="1.26"/><path class="cls-25" d="M767.47,1635.83a7.17,7.17,0,0,1,5.09,2.08l4.24-4.1a13,13,0,0,0-18.38-.17l-.17.17,4.16,4.1A7.22,7.22,0,0,1,767.47,1635.83Z"/><path class="cls-21" d="M760.26,1643a7.21,7.21,0,0,1,2.15-5.13l-4.2-4.12a13,13,0,0,0,.08,18.33l4-4.06A7.23,7.23,0,0,1,760.26,1643Z"/><path class="cls-27" d="M776.8,1633.81l-4.24,4.1a7.19,7.19,0,0,1,.11,10.11l4,4.06A13,13,0,0,0,776.8,1633.81Z"/><path class="cls-24" d="M768,1644.7a1.9,1.9,0,0,0,1.36-1.16h0l5.4-2.63s.93-.77-.25-1.1l-6,1.37a1.91,1.91,0,0,0-1.79,3.38,2,2,0,0,0,1.32.17Z"/><path class="cls-15" d="M1103.6,1617.91h-25v12.26a.7.7,0,0,1-.64.75h-12v33.19a1.78,1.78,0,0,0,1.76,1.8H1089a13,13,0,0,1-1.93-1.78H1087v-.1a12.66,12.66,0,0,1-2.73-5.39H1073a1.14,1.14,0,1,1,0-2.28H1084v-.58a13,13,0,0,1,.28-2.64h-11.18a1.13,1.13,0,0,1-.79-.33,1.17,1.17,0,0,1,0-1.61,1.13,1.13,0,0,1,.79-.33h11.86a12.76,12.76,0,0,1,2-3.22h-13.86a1.14,1.14,0,0,1,0-2.27h16.33c.27-.19.55-.36.84-.53a12.6,12.6,0,0,1,12.7,0,9.8,9.8,0,0,1,.87.55,12.58,12.58,0,0,1,1.82,1.51V1620a2,2,0,0,0-1.88-2.11Z"/><path class="cls-15" d="M1078.89,1668.13h.09l-.09-.1Z"/><path class="cls-17" d="M1076.72,1654.91H1076a1.09,1.09,0,0,1,.61.21C1076.67,1655,1076.69,1654.91,1076.72,1654.91Z"/><circle class="cls-22" cx="1088.54" cy="1659.64" r="10.26"/><polygon class="cls-5" points="1092.14 1661.34 1092.14 1651.85 1085.37 1651.85 1085.37 1661.35 1082.67 1661.35 1088.76 1668.06 1094.84 1661.34 1092.14 1661.34"/><path class="cls-15" d="M1079.56,1668.13h.09l-.09-.1Z"/><path class="cls-17" d="M1078.33,1618.57h0Z"/><path class="cls-17" d="M1078.13,1618.64l.2-.07h0Z"/><path class="cls-15" d="M1081,1630a1.14,1.14,0,0,1,1.11-1.1h16.47a1.13,1.13,0,0,1,1.11,1.14h0a1.13,1.13,0,0,1-1.11,1.14h-16.47a1.13,1.13,0,0,1-1.11-1.14Z"/><path class="cls-15" d="M1073.05,1634.37h25.57a1.14,1.14,0,1,1,0,2.28h-25.57a1.14,1.14,0,1,1,0-2.28Z"/><path class="cls-15" d="M1065.05,1643.91h25.57a1.14,1.14,0,1,1,0,2.28h-25.57a1.14,1.14,0,1,1,0-2.28Z"/><path class="cls-16" d="M1082.15,1631.15h16.47a1.13,1.13,0,0,0,1.11-1.14h0a1.13,1.13,0,0,0-1.11-1.1h-16.47a1.13,1.13,0,0,0-1.11,1.14h0A1.14,1.14,0,0,0,1082.15,1631.15Z"/><path class="cls-16" d="M1073.05,1636.65h25.57a1.14,1.14,0,1,0,0-2.28h-25.57a1.14,1.14,0,1,0,0,2.28Z"/><path class="cls-16" d="M1065.05,1646.14h25.57a1.14,1.14,0,0,0,0-2.28h-25.57a1.14,1.14,0,1,0,0,2.28Z"/><path class="cls-17" d="M1078.64,1630.17v-11.7l-.21.07h-.1l-.2.07.2-.07h.1l.21-.07v-.56l-12.63,13h11.89A.74.74,0,0,0,1078.64,1630.17Z"/><path class="cls-17" d="M1077.9,1630.91a.69.69,0,0,0,.73-.67.11.11,0,0,0,0-.08.74.74,0,0,1-.73.75Z"/><path class="cls-16" d="M1079,1649.36h-13.94a1.14,1.14,0,0,0,0,2.27h13.85l.1-.11a13,13,0,0,1,2.4-2.17Z"/><path class="cls-17" d="M1064.26,1655.2a1.17,1.17,0,0,0,0,1.61A1.17,1.17,0,0,1,1064.26,1655.2Z"/><path class="cls-16" d="M1076.23,1654.91h-11.18a1.13,1.13,0,0,0-.79.33,1.17,1.17,0,0,0,0,1.61,1.13,1.13,0,0,0,.79.33h11.15a12.72,12.72,0,0,1,.6-2.11.24.24,0,0,1,.08-.21Z"/><path class="cls-16" d="M1076,1660.36h-10.9a1.14,1.14,0,1,0,0,2.28h11.21A13.44,13.44,0,0,1,1076,1660.36Z"/><path class="cls-17" d="M1063.93,1661.5a1.13,1.13,0,0,1,1.11-1.14h0a1.14,1.14,0,1,0,0,2.28h0A1.13,1.13,0,0,1,1063.93,1661.5Z"/><path class="cls-22" d="M1079,1651.53l-.1.11h.1Z"/><text class="cls-48" transform="translate(148.6 282.67) scale(0.58)">Find functions quickly by typing here</text><path class="cls-5" d="M2100.14,177.93h-2.95a3.37,3.37,0,0,1-3.37-3.37v-6.75a3.37,3.37,0,0,1,3.37-3.37h2.95a.42.42,0,0,1,.43.42v1.4a.43.43,0,0,1-.43.43h-2.95a1.12,1.12,0,0,0-1.12,1.12v6.75a1.12,1.12,0,0,0,1.12,1.12h2.95a.43.43,0,0,1,.43.43v1.4A.42.42,0,0,1,2100.14,177.93Zm4.15-10.65,2.73,2.5h-6.74a.84.84,0,0,0-.84.84v1.13a.85.85,0,0,0,.84.84H2107l-2.73,2.5a.84.84,0,0,0,0,1.22l.77.77a.84.84,0,0,0,1.19,0l5.35-5.3a.85.85,0,0,0,0-1.2l-5.34-5.29a.85.85,0,0,0-1.2,0l-.77.77a.85.85,0,0,0,0,1.22Z"/><path class="cls-49" d="M2184.58,746.08h8.31a.84.84,0,0,1,.6,1.43l-4.16,4.16a.84.84,0,0,1-1.19,0l-4.16-4.16A.84.84,0,0,1,2184.58,746.08Z"/><path class="cls-49" d="M1985.58,168.27h8.31a.84.84,0,0,1,.6,1.43l-4.16,4.16a.84.84,0,0,1-1.19,0L1985,169.7A.84.84,0,0,1,1985.58,168.27Z"/><line class="cls-50" x1="1677.8" y1="1252.91" x2="2205.8" y2="1252.91"/><path class="cls-5" d="M2048.86,174.62c-.69-.69-1.56-1.56-1.56-4.94a5,5,0,0,0-4.17-4.93,1,1,0,0,0,.17-.57,1,1,0,1,0-1.82.57,5,5,0,0,0-4.18,4.93c0,3.38-.86,4.25-1.56,4.94a1.5,1.5,0,0,0,1.06,2.56h3.5a2,2,0,1,0,4,0h3.5A1.5,1.5,0,0,0,2048.86,174.62Zm-6.56,3.31a.25.25,0,0,1,.25.25.25.25,0,0,1-.25.25,1.25,1.25,0,0,1-1.25-1.25h.5A.75.75,0,0,0,2042.3,177.93Z"/><path class="cls-5" d="M1861.43,168.56a4.38,4.38,0,1,1,4.37,4.37A4.38,4.38,0,0,1,1861.43,168.56Zm8.31,5.25H1869a6.11,6.11,0,0,1-6.31,0h-.78a3.06,3.06,0,0,0-3.07,3.06v.66a.66.66,0,0,0,.66.65h12.69a.65.65,0,0,0,.65-.65v-.66A3.06,3.06,0,0,0,1869.74,173.81Z"/><path class="cls-51" d="M43.55,315.16a6.25,6.25,0,1,1,6.25,6.25A6.25,6.25,0,0,1,43.55,315.16ZM32.8,317.91a5,5,0,1,1,5,5A5,5,0,0,1,32.8,317.91Zm24,0a5,5,0,1,1,5,5A5,5,0,0,1,56.8,317.91Zm-1.37,4.75A4.37,4.37,0,0,1,59.8,327v4.38a1.5,1.5,0,0,1-1.5,1.5h-17a1.5,1.5,0,0,1-1.5-1.5V327a4.38,4.38,0,0,1,4.38-4.37h1.11a8.75,8.75,0,0,0,9,0h1.12M37.8,327a6.32,6.32,0,0,1,.37-2.13,7,7,0,0,1-4-1h-.9a3.5,3.5,0,0,0-3.5,3.5v2a1.5,1.5,0,0,0,1.5,1.5h6.5Zm28.5-3.12h-.89a7,7,0,0,1-4,1A6.48,6.48,0,0,1,61.8,327v3.88h6.5a1.5,1.5,0,0,0,1.5-1.5v-2A3.5,3.5,0,0,0,66.3,323.91Z"/><path class="cls-5" d="M1718.08,177,1715,173.9a.75.75,0,0,0-.53-.22h-.51a6.49,6.49,0,1,0-1.13,1.13v.51a.75.75,0,0,0,.22.53l3.12,3.12a.75.75,0,0,0,1.06,0l.88-.89A.74.74,0,0,0,1718.08,177Zm-9.28-3.34a4,4,0,1,1,4-4A4,4,0,0,1,1708.8,173.68Z"/><circle class="cls-24" cx="480.2" cy="973.76" r="24"/><rect class="cls-28" x="461.09" y="965.6" width="38.31" height="16.26" rx="3.81"/><path class="cls-17" d="M466.28,975.28a1.3,1.3,0,0,0-.87.31,1,1,0,0,0-.35.8,1.07,1.07,0,0,0,.34.79,1.17,1.17,0,0,0,.85.32,1.25,1.25,0,0,0,.89-.31,1,1,0,0,0,.34-.8,1.06,1.06,0,0,0-.33-.8A1.27,1.27,0,0,0,466.28,975.28Z"/><path class="cls-17" d="M469.58,971.28a3.71,3.71,0,0,0-1,2.78A3.29,3.29,0,0,0,472,977.5a3.92,3.92,0,0,0,2-.41v-1.71a2.65,2.65,0,0,1-1.5.49,1.79,1.79,0,0,1-1.37-.52,2.35,2.35,0,0,1,0-2.91,1.84,1.84,0,0,1,1.4-.54,2.31,2.31,0,0,1,1.44.5v-1.81a3.45,3.45,0,0,0-1.7-.32A3.72,3.72,0,0,0,469.58,971.28Z"/><path class="cls-17" d="M478.64,970.27a3.64,3.64,0,0,0-2.68,1,3.55,3.55,0,0,0-1,2.67,3.61,3.61,0,0,0,.95,2.63,4.09,4.09,0,0,0,5.3,0,3.73,3.73,0,0,0,1-2.72,3.31,3.31,0,0,0-3.56-3.52Zm0,5.6c-1,0-1.55-.66-1.55-2a2.34,2.34,0,0,1,.41-1.47,1.33,1.33,0,0,1,1.13-.52c1,0,1.5.64,1.5,1.93S479.6,975.87,478.61,975.87Z"/><path class="cls-17" d="M485.59,977.49v-4a2,2,0,0,1,.32-1.17,1,1,0,0,1,.85-.43c.7,0,1.05.49,1.05,1.46v4.13h2.06v-4a1.86,1.86,0,0,1,.32-1.13,1,1,0,0,1,.83-.45c.71,0,1.07.5,1.07,1.5v4.09h2.05v-4.44c0-1.85-.72-2.78-2.18-2.78a2.45,2.45,0,0,0-2.24,1.29,1.93,1.93,0,0,0-1.94-1.29,2.39,2.39,0,0,0-1.26.35,2.43,2.43,0,0,0-.9.9h0v-1.08h-2.06v7Z"/><path class="cls-26" d="M495.58,964.65H464.92a4.91,4.91,0,0,0-4.91,4.91v8.57a4.9,4.9,0,0,0,4.91,4.9h30.66a4.9,4.9,0,0,0,4.91-4.9v-8.57A4.91,4.91,0,0,0,495.58,964.65Zm2.72,13.11a3,3,0,0,1-3,3H465.17a3,3,0,0,1-3-3v-7.83a3,3,0,0,1,3-3h30.16a3,3,0,0,1,3,3Z"/><g id="version-control-2"><circle class="cls-14" cx="469.93" cy="583.4" r="24"/><path class="cls-5" d="M478.33,580c-.19-.18-7.39-7.39-7.39-7.39a5.39,5.39,0,0,0-6.94-6.85l-4.2-4.2a24,24,0,0,0-3.92,2.29l4.93,4.92a5.38,5.38,0,0,0,2.73,7v19a5.39,5.39,0,1,0,4.38,0V576l6.94,6.94a5.4,5.4,0,0,0,.56,5.65,5.17,5.17,0,0,0,2.83,1.92,5.39,5.39,0,1,0,1.45-10.58A9.66,9.66,0,0,0,478.33,580Zm-9.95,19.71a2.65,2.65,0,1,1-2.65-2.65,2.64,2.64,0,0,1,2.65,2.65Zm-1.5-26.53a2.65,2.65,0,1,1,1.5-2.4h0A2.58,2.58,0,0,1,466.88,573.21Zm12.91,14.67a2.65,2.65,0,1,1,2.65-2.65.28.28,0,0,1,0,.09A2.65,2.65,0,0,1,479.79,587.88Z"/></g><path class="cls-22" d="M772.9,591.61a8.51,8.51,0,0,0-6.11,2.92,9.8,9.8,0,0,0-2.4,6.5,9.07,9.07,0,0,0,4.25,7.45c4.3,2.53,7.69,1.07,7.69,1.07a9.34,9.34,0,0,0,5.6-5,10.2,10.2,0,0,0,0-7.69,8,8,0,0,0-1.3-2l1.66-1.26-6-1.66v6.43l1.86-1.46a5.87,5.87,0,0,1,.71,6.51c-1.78,4-6.16,3.27-6.16,3.27s-5.64-.82-5.08-7.14a6,6,0,0,1,5.32-4.81Z"/><path class="cls-16" d="M772.19,602.12v-3.85s.07-.31.57-.33c0,0,.45,0,.48.31v2.9l2.89,0a.53.53,0,0,1,.28.53c0,.4-.28.42-.28.42Z"/><path class="cls-26" d="M761.58,595.5v0H745.77s-1.09.19-1.09-1.43c0-1.24,0-13,0-18.47v-2.74h33.79a.93.93,0,0,1,1,1v11.26a12,12,0,0,1,5.08,5.69,24,24,0,1,0-22.78,16.53,24.2,24.2,0,0,0,6.75-1A12,12,0,0,1,761.58,595.5Z"/><path class="cls-17" d="M744.67,574.22V571a1.12,1.12,0,0,1,1.13-1.14H757a1.48,1.48,0,0,1,1.13.7c.4.67,1.94,3.13,1.94,3.13v1.68l-15.39.19Z"/><path class="cls-15" d="M778.46,572.83H744.67v2.74c0,5.45,0,17.23,0,18.47,0,1.62,1.09,1.43,1.09,1.43h15.81a12,12,0,0,1,17.9-10.37V573.85A.93.93,0,0,0,778.46,572.83Z"/></g><rect class="cls-1" x="10" y="10" width="2255.8" height="1639.44" rx="12"/></g><g id="new_notification" data-name="new notification"><path class="cls-35" d="M2203.8,1430.91h52a0,0,0,0,1,0,0v55a0,0,0,0,1,0,0h-52a3,3,0,0,1-3-3v-49A3,3,0,0,1,2203.8,1430.91Z"/><path class="cls-5" d="M2233.67,1468.72v1.88a1.62,1.62,0,0,1-1.07,1.52v.63a1.62,1.62,0,0,1-1.61,1.61h-5.37a1.62,1.62,0,0,1-1.61-1.61v-.63a1.6,1.6,0,0,1-1.07-1.52v-1.88a.8.8,0,0,1,.8-.8h9.12A.8.8,0,0,1,2233.67,1468.72Zm-9.6-3a1.61,1.61,0,0,1-1.5-1c-2.61-6.78-6.07-6.1-6.07-12.92a11.81,11.81,0,1,1,23.61,0c0,6.82-3.47,6.14-6.07,12.92a1.61,1.61,0,0,1-1.5,1Zm-1.13-14a5.37,5.37,0,0,1,5.36-5.37,1.08,1.08,0,1,0,0-2.15,7.52,7.52,0,0,0-7.51,7.52,1.08,1.08,0,0,0,2.15,0Z"/></g></g></svg>